<svg width="217" height="217" viewBox="0 0 217 217" fill="none" xmlns="http://www.w3.org/2000/svg">
<g clip-path="url(#clip0)">
<ellipse rx="45.978" ry="30.4934" transform="matrix(0.829948 -0.55784 0.557306 0.830307 96.4299 71.899)" fill="#00FA9A"/>
<ellipse rx="30.0876" ry="30.4934" transform="matrix(0.829948 -0.55784 0.557306 0.830307 151.195 158.035)" fill="#00FA9A"/>
<path d="M163.483 45.3258C157.704 41.6972 153.625 36.1408 147.845 32.3988C152.265 29.3371 154.531 24.8013 159.29 21.6262C160.99 20.4923 160.31 17.8842 158.27 17.7708C151.018 17.3172 144.332 14.5957 137.193 13.6886C136.627 10.1733 135.72 6.65807 135.38 3.14282C135.267 1.89548 134.474 1.10171 133.227 0.988315C117.137 -0.145636 111.244 15.9565 112.717 29.5639C109.318 27.6362 105.805 26.162 102.292 25.2549C76.2295 19.0181 52.4327 49.2947 35.8889 64.4896C35.0957 65.17 35.3223 66.3039 35.8889 67.0977C35.5489 67.5513 35.4356 68.2316 35.7756 68.7986C36.5688 70.7263 37.8153 74.1282 39.515 78.2104C28.1834 75.3755 13.3389 75.4889 4.61355 83.1998C-3.20528 90.2303 7.78641 94.4259 15.2653 96.3536C9.14621 101.57 3.93366 108.6 5.40677 116.992C6.9932 126.063 18.2115 126.177 26.0304 125.043C24.4439 132.754 22.5175 147.382 33.2826 142.506C44.2743 137.403 52.2064 120.28 55.6059 109.168C60.4785 114.95 65.9177 118.126 71.6969 115.291C90.847 105.879 113.737 87.9624 126.542 70.9531C130.281 65.8503 131.642 60.6342 131.302 55.5314C142.406 55.3046 153.285 53.4903 163.483 48.8411C164.957 48.1607 164.617 46.1196 163.483 45.3258ZM51.8669 107.126C49.1473 116.538 44.048 125.269 37.8156 132.64C35.7759 135.134 33.1697 138.083 29.9968 138.99C27.3905 139.784 30.6767 123.909 30.9033 122.775C31.3566 121.074 29.8835 119.713 28.1837 120.053C22.0646 121.3 9.9398 123.115 9.48653 113.816C9.14658 106.899 16.5121 100.663 21.6114 97.1474C22.9712 96.1268 23.1978 93.292 21.0448 92.9518C16.6255 92.3848 12.0928 91.7044 8.12673 89.5499C3.93403 87.1686 12.2061 83.7668 13.6792 83.1998C22.2913 79.6846 31.4699 79.5712 40.5352 81.0453C41.895 84.3337 43.4815 88.0758 45.1812 91.7044C40.3086 89.5499 35.6626 90.2303 30.4501 91.4776C28.2971 92.0446 29.3169 95.5599 31.3566 94.7661C35.8893 92.9518 40.5352 92.2714 45.1812 94.1991C45.6345 94.4259 45.9744 94.1991 46.201 93.9723C46.7676 95.1063 47.3342 96.2402 48.0141 97.3742C42.235 101.116 36.3425 105.765 32.0365 110.982C30.9033 112.342 32.6031 114.043 33.9629 112.909C36.6825 110.755 38.9488 107.92 41.4418 105.425C43.8214 103.157 46.3144 101.003 48.9206 99.0751C50.2804 101.456 51.6402 103.838 53.1133 105.879C52.5468 105.992 52.0935 106.446 51.8669 107.126ZM117.93 73.788C105.126 86.8284 90.0545 98.5081 74.7568 108.487C57.1927 119.94 44.8412 79.231 38.7222 67.3245C53.1133 61.3145 64.445 43.5115 77.5897 35.0069C103.879 17.7708 142.973 48.2741 117.93 73.788ZM124.389 39.5427C125.862 36.0274 126.655 32.172 128.015 28.5433C128.469 27.4094 126.655 26.6156 125.975 27.7496C124.276 30.8112 123.823 34.4399 122.803 37.8417C120.65 35.5738 118.27 33.4193 115.664 31.605C115.664 20.4923 118.044 5.75091 131.302 5.41073C131.868 8.92598 132.775 12.2144 133.115 15.7297C133.228 16.977 134.022 17.7708 135.268 17.8842C141.5 18.2244 147.506 20.3789 153.625 21.3994C150.565 24.8013 148.299 28.6567 143.087 30.4711C141.727 30.9246 140.934 33.1925 142.407 33.9863C137.194 36.9346 132.662 41.924 128.582 46.233C127.562 43.9651 126.089 41.6972 124.389 39.5427ZM131.188 51.2224C130.962 51.2224 130.848 51.3358 130.622 51.3358C130.282 50.0884 129.829 48.9545 129.376 47.7071C129.489 47.7071 129.602 47.7071 129.602 47.5937C131.755 45.5526 134.022 43.3981 136.288 41.4704C138.894 39.2025 141.84 37.5016 144.446 35.2337C144.56 35.2337 144.446 35.1203 144.56 35.1203C149.886 38.0685 153.739 42.8311 158.498 46.5732C149.659 49.975 140.48 50.9956 131.188 51.2224Z" fill="black"/>
<path d="M214.023 148.062C208.13 141.599 206.544 135.929 199.178 132.073C202.804 127.991 206.09 123.569 209.83 119.487C211.076 118.126 210.17 116.085 208.356 116.085C201.671 115.858 194.985 114.61 188.3 114.157C191.812 104.292 197.252 80.9322 179.914 86.4885C168.242 90.2306 160.197 107.353 164.39 119.146C156.911 113.59 147.052 111.662 136.287 116.311C135.947 116.425 135.721 116.652 135.494 116.878C117.817 116.652 109.771 133.094 110.111 150.67C100.819 144.887 87.4474 141.372 78.3821 148.516C69.2035 155.887 83.0281 165.185 90.0537 168.927C83.2547 176.525 77.2489 185.483 78.9487 196.029C79.1753 197.163 80.5351 197.73 81.4416 197.503C87.2208 196.142 93.1132 196.709 98.8924 195.916C96.7394 203.74 94.1327 218.595 105.351 216.78C116.91 214.966 126.315 202.152 130.621 192.174C131.641 189.906 128.241 187.865 127.221 190.132C123.709 198.297 118.042 205.441 110.677 210.317C97.6455 218.935 101.498 200.792 103.765 193.761C104.218 192.174 102.745 190.927 101.272 191.267C95.1529 192.741 88.9202 191.947 82.8014 192.854C82.3482 183.783 89.0338 175.845 94.9263 169.608C95.8328 168.701 95.7195 166.887 94.4727 166.32C88.5806 163.598 71.8098 153.62 85.7473 149.311C94.0194 146.702 102.858 150.218 110.224 153.96C110.79 161.331 112.83 168.815 116.23 175.052C116.003 175.052 115.663 175.165 115.436 175.505C113.736 177.433 113.17 180.041 111.47 181.968C110.564 183.103 112.037 184.69 113.057 183.556C114.87 181.742 115.663 179.247 117.476 177.433C117.476 177.433 117.476 177.319 117.59 177.319C121.556 183.67 126.994 188.545 133.794 190.587C156.117 197.164 176.514 171.309 178.214 151.919C178.214 151.578 178.214 151.352 178.214 151.012C188.526 158.609 202.803 156.908 213.569 151.012C214.702 150.557 214.816 148.969 214.023 148.062ZM172.549 158.381C169.263 174.71 147.166 193.42 130.281 184.235C109.091 172.669 107.958 121.981 135.608 119.26C136.061 120.054 136.967 120.62 137.987 120.28C162.916 112.229 177.195 135.589 172.549 158.381ZM180.141 147.835C179.461 147.495 178.894 147.495 178.441 147.835C178.327 144.433 177.875 141.032 176.968 137.857C177.081 137.857 177.081 137.97 177.194 137.97C181.387 138.083 186.599 138.424 190.225 135.702C191.019 135.135 190.565 133.774 189.545 134.001C187.732 134.455 185.919 135.022 184.106 135.475C181.84 135.929 179.574 135.929 177.307 136.042C176.967 136.042 176.741 136.269 176.514 136.496C175.72 134.115 174.814 131.847 173.681 129.806C174.248 129.919 174.928 129.692 175.608 129.352C176.287 128.898 175.834 127.651 175.041 127.991C174.928 127.991 174.815 128.105 174.701 128.105C174.928 127.538 175.268 126.971 175.608 126.517C176.401 125.27 177.307 124.136 178.214 123.002C179.007 121.981 177.42 121.074 176.627 121.755C174.928 123.116 173.001 125.61 172.548 127.878C171.075 125.61 169.488 123.569 167.562 121.755C167.902 109.962 167.448 98.7356 178.894 91.5917C194.418 81.9531 185.806 110.529 183.653 115.631C183.087 116.879 184.447 118.126 185.579 118.24C191.925 118.466 198.157 119.487 204.39 120.054C201.104 123.909 198.157 127.878 194.645 131.506C193.512 132.641 194.191 134.341 195.552 134.795C203.37 137.743 205.41 143.3 209.716 148.856C199.858 153.278 189.546 153.392 180.141 147.835Z" fill="black"/>
<path d="M107.165 165.184C105.125 167.225 102.406 167.111 99.7994 167.225C98.4396 167.225 98.4396 169.379 99.7994 169.379C103.199 169.493 106.372 169.606 109.091 167.225C110.451 165.978 108.412 163.937 107.165 165.184Z" fill="black"/>
<g clip-path="url(#clip1)">
<path d="M90.6123 66.3841H83.3256C84.0589 65.8191 84.8186 65.2989 85.4729 64.7972C85.6351 64.6732 85.793 64.5456 85.9489 64.4171H90.6122C91.2746 64.4171 91.8112 63.88 91.8112 63.2173C91.8112 62.5546 91.2746 62.0175 90.6122 62.0175H88.1655C88.4991 61.5063 88.7837 60.958 88.9931 60.3529C89.5324 58.7927 89.2634 56.9963 88.3616 55.6309C86.0871 52.1873 81.4142 52.4419 78.1603 54.1525C76.7911 54.8724 78.0031 56.9436 79.3706 56.2246C80.9857 55.3756 82.7789 54.9923 84.5453 55.5734C85.7536 55.9709 86.7572 57.0686 86.8619 58.359C86.98 59.8217 86.0948 61.0484 85.0735 62.0182H75.8823C75.2202 62.0182 74.6833 62.5553 74.6833 63.218C74.6833 63.8807 75.2201 64.4177 75.8823 64.4177H81.9928C81.4348 64.8302 80.8867 65.2548 80.3735 65.726C80.1489 65.9329 79.9382 66.1535 79.74 66.3848H75.8823C75.2202 66.3848 74.6833 66.9218 74.6833 67.5846C74.6833 68.2471 75.2201 68.7845 75.8823 68.7845H78.3413C77.5621 70.95 77.8075 73.4085 79.5609 75.2185C81.9863 77.7225 86.1466 77.1086 88.9624 75.7357C90.3526 75.0578 89.1363 72.989 87.752 73.6635C85.5722 74.7267 81.577 75.2968 80.5421 72.3767C80.0446 70.9728 80.3057 69.8008 80.949 68.7847H90.6122C91.2745 68.7847 91.8112 68.2474 91.8112 67.5849C91.8112 66.9221 91.2746 66.3841 90.6123 66.3841Z" fill="black"/>
</g>
<g clip-path="url(#clip2)">
<path d="M146.573 147.384H139.287C140.02 146.819 140.78 146.299 141.434 145.797C141.596 145.673 141.754 145.546 141.91 145.417H146.573C147.236 145.417 147.772 144.88 147.772 144.217C147.772 143.555 147.236 143.018 146.573 143.018H144.127C144.46 142.506 144.745 141.958 144.954 141.353C145.494 139.793 145.225 137.996 144.323 136.631C142.048 133.187 137.375 133.442 134.121 135.153C132.752 135.872 133.964 137.944 135.332 137.225C136.947 136.376 138.74 135.992 140.506 136.573C141.715 136.971 142.718 138.069 142.823 139.359C142.941 140.822 142.056 142.048 141.035 143.018H131.844C131.181 143.018 130.645 143.555 130.645 144.218C130.645 144.881 131.181 145.418 131.844 145.418H137.954C137.396 145.83 136.848 146.255 136.335 146.726C136.11 146.933 135.899 147.154 135.701 147.385H131.844C131.181 147.385 130.645 147.922 130.645 148.585C130.645 149.247 131.181 149.784 131.844 149.784H134.302C133.523 151.95 133.769 154.408 135.522 156.219C137.947 158.723 142.108 158.109 144.924 156.736C146.314 156.058 145.097 153.989 143.713 154.664C141.533 155.727 137.538 156.297 136.503 153.377C136.006 151.973 136.267 150.801 136.91 149.785H146.573C147.236 149.785 147.772 149.247 147.772 148.585C147.772 147.922 147.236 147.384 146.573 147.384Z" fill="black"/>
</g>
</g>
<defs>
<clipPath id="clip0">
<rect width="215.85" height="216" fill="white" transform="translate(0.304932 0.931641)"/>
</clipPath>
<clipPath id="clip1">
<rect width="23.9833" height="24" fill="white" transform="translate(71.2556 52.9316)"/>
</clipPath>
<clipPath id="clip2">
<rect width="23.9833" height="24" fill="white" transform="translate(127.217 133.932)"/>
</clipPath>
</defs>
</svg>
