<svg width="130" height="131" viewBox="0 0 130 131" fill="none" xmlns="http://www.w3.org/2000/svg">
<circle cx="68.2355" cy="69.3038" r="59.7663" stroke="black" stroke-width="2"/>
<circle cx="60.7663" cy="60.7663" r="59.7663" fill="#00FA9A"/>
<path d="M37.5651 34.152V38.344H30.4611V57H25.6931V38.344H18.5891V34.152H37.5651ZM50.2366 40.552V44.712H48.6366C45.2873 44.712 43.6126 46.408 43.6126 49.8V57H39.1326V40.552H43.4526V42.408H44.2846C45.1166 41.1707 46.5886 40.552 48.7006 40.552H50.2366ZM60.6524 63.4H56.1724L59.6604 55.304L52.6844 40.552H57.3564L61.4524 49.32H62.2844L66.0604 40.552H70.5724L60.6524 63.4Z" fill="black"/>
<path d="M84.57 58.432C83.514 58.432 82.554 58.276 81.69 57.964C80.826 57.628 80.082 57.172 79.458 56.596C78.858 56.02 78.378 55.336 78.018 54.544C77.682 53.728 77.514 52.84 77.514 51.88C77.514 51.112 77.634 50.404 77.874 49.756C78.114 49.108 78.438 48.52 78.846 47.992C79.278 47.44 79.758 46.936 80.286 46.48C80.814 46 81.366 45.544 81.942 45.112C81.438 44.128 81.042 43.168 80.754 42.232C80.49 41.272 80.358 40.372 80.358 39.532C80.358 38.74 80.478 38.008 80.718 37.336C80.982 36.664 81.33 36.076 81.762 35.572C82.218 35.068 82.758 34.672 83.382 34.384C84.03 34.096 84.75 33.952 85.542 33.952C87.006 33.952 88.134 34.384 88.926 35.248C89.718 36.112 90.114 37.24 90.114 38.632C90.114 39.4 89.958 40.096 89.646 40.72C89.358 41.344 88.974 41.944 88.494 42.52C88.014 43.072 87.474 43.6 86.874 44.104C86.274 44.584 85.662 45.064 85.038 45.544C85.806 46.768 86.682 47.944 87.666 49.072C88.674 50.2 89.718 51.232 90.798 52.168C91.47 51.208 92.046 50.164 92.526 49.036C93.03 47.884 93.45 46.624 93.786 45.256H96.522C96.09 46.816 95.562 48.304 94.938 49.72C94.314 51.136 93.57 52.468 92.706 53.716C94.146 54.82 95.502 55.576 96.774 55.984L95.946 58.432C94.386 57.952 92.742 57.052 91.014 55.732C90.15 56.572 89.19 57.232 88.134 57.712C87.102 58.192 85.914 58.432 84.57 58.432ZM82.914 39.496C82.914 40.144 83.01 40.816 83.202 41.512C83.394 42.208 83.658 42.916 83.994 43.636C84.498 43.276 84.966 42.916 85.398 42.556C85.854 42.172 86.25 41.788 86.586 41.404C86.946 40.996 87.222 40.576 87.414 40.144C87.606 39.688 87.702 39.196 87.702 38.668C87.702 37.972 87.534 37.372 87.198 36.868C86.886 36.34 86.334 36.076 85.542 36.076C84.702 36.076 84.054 36.4 83.598 37.048C83.142 37.696 82.914 38.512 82.914 39.496ZM84.93 56.056C85.674 56.056 86.394 55.888 87.09 55.552C87.786 55.216 88.446 54.76 89.07 54.184C87.918 53.176 86.826 52.072 85.794 50.872C84.786 49.672 83.874 48.424 83.058 47.128C82.29 47.8 81.654 48.508 81.15 49.252C80.646 49.972 80.394 50.788 80.394 51.7C80.394 52.348 80.514 52.948 80.754 53.5C80.994 54.028 81.318 54.484 81.726 54.868C82.134 55.252 82.614 55.552 83.166 55.768C83.718 55.96 84.306 56.056 84.93 56.056Z" fill="black"/>
<path d="M50.5126 76.712V77.544C51.366 77.928 52.07 78.5573 52.6246 79.432C53.2006 80.3067 53.4886 81.288 53.4886 82.376C53.4886 84.3813 52.8273 85.992 51.5046 87.208C50.182 88.4027 48.2193 89 45.6166 89H34.6086V66.152H45.3286C47.7393 66.152 49.5953 66.728 50.8966 67.88C52.198 69.032 52.8486 70.472 52.8486 72.2C52.8486 73.224 52.6353 74.1413 52.2086 74.952C51.8033 75.7413 51.238 76.328 50.5126 76.712ZM39.3766 75.208H44.7526C46.886 75.208 47.9526 74.3547 47.9526 72.648C47.9526 70.9627 46.8753 70.12 44.7206 70.12H39.3766V75.208ZM39.3766 84.936H44.9126C47.366 84.936 48.5926 83.9973 48.5926 82.12C48.5926 80.1787 47.3873 79.208 44.9766 79.208H39.3766V84.936ZM57.2529 72.552H61.7329V81.864C61.7329 83.016 61.9996 83.9013 62.5329 84.52C63.0876 85.1387 63.8876 85.448 64.9329 85.448C66.0209 85.448 66.8956 85.0427 67.5569 84.232C68.2396 83.4213 68.5809 82.44 68.5809 81.288V72.552H73.0609V89H68.7409V87.496H67.9089C66.9276 88.776 65.4022 89.416 63.3329 89.416C61.3062 89.416 59.7809 88.8293 58.7569 87.656C57.7542 86.4827 57.2529 84.8187 57.2529 82.664V72.552ZM83.9654 95.4H79.4854L82.9734 87.304L75.9974 72.552H80.6694L84.7654 81.32H85.5974L89.3734 72.552H93.8854L83.9654 95.4Z" fill="black"/>
<circle cx="60.7663" cy="60.7663" r="59.7663" stroke="black" stroke-width="2"/>
</svg>
