<svg width="32" height="33" viewBox="0 0 32 33" fill="none" xmlns="http://www.w3.org/2000/svg">
<g clip-path="url(#clip0)">
<path d="M27.3125 0.227539H4.6875C2.10303 0.227539 0 0.227639 0 0.227639L0 32.2275C0 32.2275 2.10303 32.2275 4.6875 32.2275C4.6875 32.2275 32.2374 32.2275 32 32.2275C31.7626 32.2275 32 30.1245 32 27.54V0.227539C32 0.227539 29.897 0.227539 27.3125 0.227539ZM16.0625 24.6025C11.4099 24.6025 7.625 20.8176 7.625 16.165C7.625 11.5124 11.4099 7.72754 16.0625 7.72754C20.7151 7.72754 24.5 11.5124 24.5 16.165C24.5 20.8176 20.7151 24.6025 16.0625 24.6025ZM25.4375 9.60254C23.8867 9.60254 22.625 8.34082 22.625 6.79004C22.625 5.23926 23.8867 3.97754 25.4375 3.97754C26.9883 3.97754 28.25 5.23926 28.25 6.79004C28.25 8.34082 26.9883 9.60254 25.4375 9.60254Z" fill="#00FA9A"/>
<path d="M25.4375 5.85254C24.9202 5.85254 24.5 6.27271 24.5 6.79004C24.5 7.30737 24.9202 7.72754 25.4375 7.72754C25.9548 7.72754 26.375 7.30737 26.375 6.79004C26.375 6.27271 25.9548 5.85254 25.4375 5.85254Z" fill="#00FA9A"/>
<path d="M16.0625 9.60254C12.4443 9.60254 9.5 12.5469 9.5 16.165C9.5 19.7832 12.4443 22.7275 16.0625 22.7275C19.6807 22.7275 22.625 19.7832 22.625 16.165C22.625 12.5469 19.6807 9.60254 16.0625 9.60254Z" fill="#00FA9A"/>
</g>
<defs>
<clipPath id="clip0">
<rect width="32" height="32" fill="white" transform="translate(0 0.227539)"/>
</clipPath>
</defs>
</svg>
