<svg width="64" height="41" viewBox="0 0 64 41" fill="none" xmlns="http://www.w3.org/2000/svg">
<path d="M7.73642 19.1597V20.3901C8.66363 20.6831 9.43148 21.2837 10.04 22.1919C10.6484 23.1 10.9527 24.2279 10.9527 25.5756V29.2229C10.9527 30.8635 11.2424 32.0793 11.8219 32.8703C12.4015 33.6613 13.3866 34.0568 14.7774 34.0568H16.3856V39.5498H13.4735C10.6919 39.5498 8.51875 38.7442 6.95409 37.1329C5.38942 35.5216 4.60708 33.4416 4.60708 30.8928V26.8499C4.60708 24.0668 3.49153 22.6752 1.26043 22.6752H0L0 16.8746H1.26043C3.49153 16.8746 4.60708 15.483 4.60708 12.6999V8.65702C4.60708 6.10825 5.38942 4.02822 6.95409 2.41693C8.51875 0.805645 10.6919 0 13.4735 0L16.3856 0V5.49304H14.7774C13.3866 5.49304 12.4015 5.88853 11.8219 6.67953C11.2424 7.47053 10.9527 8.68632 10.9527 10.3269V13.9743C10.9527 15.3219 10.6484 16.4498 10.04 17.358C9.43148 18.2662 8.66363 18.8667 7.73642 19.1597Z" fill="#00FA9A"/>
<path d="M44.0376 21.269C44.0376 22.7338 43.6174 23.9496 42.7771 24.9164C41.9658 25.8832 41.0386 26.5423 39.9955 26.8939V28.1243C41.3284 29.179 41.9948 30.8049 41.9948 33.0021C41.9948 35.3165 41.0531 37.2208 39.1697 38.7149C37.3153 40.2383 34.7799 41 31.5637 41C28.5213 41 26.0584 40.1944 24.175 38.5831C22.2916 37.0011 21.2629 34.7306 21.0891 31.7717H27.9562C28.188 33.9689 29.5064 35.0675 31.9114 35.0675C34.0555 35.0675 35.1276 34.3058 35.1276 32.7824C35.1276 31.6692 34.2004 30.8635 32.346 30.3655L26.7827 28.8714C24.5516 28.2855 22.8566 27.4359 21.6976 26.3226C20.5385 25.1801 19.959 23.642 19.959 21.7085C19.959 20.1851 20.3647 18.9546 21.176 18.0171C22.0163 17.0797 22.958 16.4352 24.0011 16.0836V14.8532C22.6682 13.7985 22.0018 12.1726 22.0018 9.97535C22.0018 7.66095 22.929 5.7567 24.7834 4.26259C26.6668 2.73919 29.2167 1.97749 32.4329 1.97749C35.4753 1.97749 37.9382 2.76849 39.8216 4.35048C41.705 5.90318 42.7337 8.15899 42.9075 11.1179H36.0404C35.8375 8.97928 34.5192 7.90997 32.0852 7.90997C29.9411 7.90997 28.869 8.67167 28.869 10.1951C28.869 10.781 29.0863 11.2644 29.5209 11.6452C29.9555 11.9968 30.6654 12.319 31.6506 12.612C32.2011 12.7878 33.1428 13.0514 34.4757 13.403C35.8086 13.7253 36.7213 13.9596 37.2139 14.1061C39.445 14.6627 41.14 15.5123 42.299 16.6549C43.4581 17.7681 44.0376 19.3062 44.0376 21.269ZM31.8679 23.9936L35.345 25.0043C35.9245 24.7992 36.3736 24.4623 36.6923 23.9936C37.04 23.4955 37.2139 22.9682 37.2139 22.4116C37.2139 21.1225 36.417 20.2437 34.8234 19.7749L32.1287 18.9839C30.3612 18.4859 29.2022 18.149 28.6516 17.9732C27.4057 18.3834 26.7827 19.2476 26.7827 20.5659C26.7827 21.8549 27.5796 22.7338 29.1732 23.2026C30.0714 23.4955 30.9697 23.7592 31.8679 23.9936Z" fill="#00FA9A"/>
<path d="M56.2636 20.3901V19.1597C55.3364 18.8667 54.5685 18.2662 53.96 17.358C53.3516 16.4498 53.0473 15.3219 53.0473 13.9743V10.3269C53.0473 8.68632 52.7576 7.47053 52.178 6.67953C51.5985 5.88853 50.6134 5.49304 49.2226 5.49304H47.6144V0L50.5265 0C53.3081 0 55.4812 0.805645 57.0459 2.41693C58.6106 4.02822 59.3929 6.10825 59.3929 8.65702V12.6999C59.3929 15.483 60.5085 16.8746 62.7396 16.8746H64V22.6752H62.7396C60.5085 22.6752 59.3929 24.0668 59.3929 26.8499V30.8928C59.3929 33.4416 58.6106 35.5216 57.0459 37.1329C55.4812 38.7442 53.3081 39.5498 50.5265 39.5498H47.6144V34.0568H49.2226C50.6134 34.0568 51.5985 33.6613 52.178 32.8703C52.7576 32.0793 53.0473 30.8635 53.0473 29.2229V25.5756C53.0473 24.2279 53.3516 23.1 53.96 22.1919C54.5685 21.2837 55.3364 20.6831 56.2636 20.3901Z" fill="#00FA9A"/>
</svg>
