<svg width="106" height="67" viewBox="0 0 106 67" fill="none" xmlns="http://www.w3.org/2000/svg">
<path d="M13.4394 31.3093V33.32C14.9595 33.7987 16.2184 34.7801 17.216 36.2642C18.2136 37.7484 18.7124 39.5915 18.7124 41.7937V47.7541C18.7124 50.435 19.1874 52.4218 20.1375 53.7144C21.0876 55.007 22.7028 55.6533 24.983 55.6533H27.6195V64.6297H22.8453C18.2848 64.6297 14.722 63.3132 12.1567 60.6801C9.59149 58.047 8.30886 54.648 8.30886 50.4829V43.8763C8.30886 39.3282 6.47993 37.0542 2.82207 37.0542H0.755615L0.755615 27.5751H2.82207C6.47993 27.5751 8.30886 25.301 8.30886 20.753V14.1464C8.30886 9.98129 9.59149 6.58222 12.1567 3.94914C14.722 1.31605 18.2848 -0.000488281 22.8453 -0.000488281L27.6195 -0.000488281V8.97593H24.983C22.7028 8.97593 21.0876 9.62224 20.1375 10.9148C19.1874 12.2074 18.7124 14.1942 18.7124 16.8752V22.8355C18.7124 25.0377 18.2136 26.8809 17.216 28.365C16.2184 29.8491 14.9595 30.8305 13.4394 31.3093Z" fill="black"/>
<path d="M72.9546 34.7562C72.9546 37.1499 72.2657 39.1367 70.8881 40.7166C69.558 42.2964 68.0378 43.3736 66.3277 43.9481V45.9588C68.5129 47.6823 69.6055 50.3393 69.6055 53.9298C69.6055 57.7119 68.0616 60.8237 64.9738 63.2653C61.9335 65.7548 57.7768 66.9995 52.5038 66.9995C47.5158 66.9995 43.4779 65.683 40.3901 63.0499C37.3023 60.4647 35.6159 56.7544 35.3309 51.9191H46.5895C46.9695 55.5097 49.131 57.305 53.0739 57.305C56.5892 57.305 58.3469 56.0602 58.3469 53.5708C58.3469 51.7516 56.8267 50.435 53.7864 49.6212L44.6655 47.1796C41.0077 46.2221 38.2286 44.8337 36.3285 43.0145C34.4283 41.1474 33.4782 38.634 33.4782 35.4743C33.4782 32.9849 34.1432 30.9741 35.4734 29.4422C36.851 27.9102 38.3949 26.857 40.1051 26.2825V24.2718C37.9199 22.5483 36.8273 19.8913 36.8273 16.3007C36.8273 12.5186 38.3474 9.4068 41.3877 6.96521C44.4755 4.47575 48.6559 3.23102 53.9289 3.23102C58.9169 3.23102 62.9548 4.52363 66.0426 7.10884C69.1304 9.64617 70.8168 13.3325 71.1019 18.1678H59.8433C59.5107 14.673 57.3493 12.9256 53.3589 12.9256C49.8435 12.9256 48.0859 14.1703 48.0859 16.6597C48.0859 17.6172 48.4422 18.4072 49.1547 19.0295C49.8673 19.604 51.0312 20.1306 52.6463 20.6094C53.5489 20.8966 55.0928 21.3275 57.278 21.902C59.4632 22.4286 60.9596 22.8116 61.7672 23.051C65.4251 23.9606 68.2041 25.3489 70.1043 27.216C72.0045 29.0352 72.9546 31.5486 72.9546 34.7562ZM53.0026 39.2085L58.7032 40.8602C59.6533 40.5251 60.3896 39.9745 60.9121 39.2085C61.4822 38.3947 61.7672 37.5329 61.7672 36.6233C61.7672 34.5168 60.4608 33.0806 57.8481 32.3146L53.4301 31.022C50.5324 30.2082 48.6322 29.6576 47.7296 29.3704C45.6869 30.0406 44.6655 31.4529 44.6655 33.6072C44.6655 35.7137 45.9719 37.1499 48.5847 37.9159C50.0573 38.3947 51.53 38.8255 53.0026 39.2085Z" fill="black"/>
<path d="M92.9989 33.32V31.3093C91.4788 30.8305 90.2199 29.8491 89.2223 28.365C88.2247 26.8809 87.7259 25.0377 87.7259 22.8355V16.8752C87.7259 14.1942 87.2509 12.2074 86.3008 10.9148C85.3507 9.62224 83.7355 8.97593 81.4553 8.97593L78.8188 8.97593V-0.000488281L83.593 -0.000488281C88.1535 -0.000488281 91.7163 1.31605 94.2816 3.94914C96.8468 6.58222 98.1294 9.98129 98.1294 14.1464V20.753C98.1294 25.301 99.9584 27.5751 103.616 27.5751H105.683V37.0542H103.616C99.9584 37.0542 98.1294 39.3282 98.1294 43.8763V50.4829C98.1294 54.648 96.8468 58.047 94.2816 60.6801C91.7163 63.3132 88.1535 64.6297 83.593 64.6297H78.8188V55.6533H81.4553C83.7355 55.6533 85.3507 55.007 86.3008 53.7144C87.2509 52.4218 87.7259 50.435 87.7259 47.7541V41.7937C87.7259 39.5915 88.2247 37.7484 89.2223 36.2642C90.2199 34.7801 91.4788 33.7987 92.9989 33.32Z" fill="black"/>
</svg>
