<svg width="259" height="166" viewBox="0 0 259 166" fill="none" xmlns="http://www.w3.org/2000/svg">
<path d="M67.2856 137.124V136.624H66.7856H60.3575C54.8856 136.624 51.1329 135.079 48.9463 132.11C46.7231 129.092 45.5691 124.387 45.5691 117.906V103.406C45.5691 97.9717 44.335 93.3845 41.8355 89.6741C39.4242 86.0947 36.3833 83.6686 32.713 82.4277V78.2616C36.3833 77.0207 39.4242 74.5946 41.8355 71.0152C44.335 67.3048 45.5691 62.7176 45.5691 57.2836V42.783C45.5691 36.3025 46.7231 31.5972 48.9463 28.579C51.1329 25.6106 54.8856 24.0655 60.3575 24.0655H66.7856H67.2856V23.5655V1.72729V1.22729H66.7856L55.1456 1.22729C43.9267 1.22729 35.0982 4.46232 28.7281 10.9868C22.3703 17.4986 19.2043 25.8995 19.2043 36.1442V52.2171C19.2043 57.6954 18.0983 61.7114 15.9707 64.3511C13.8597 66.9702 10.6771 68.3141 6.32703 68.3141H1.28882H0.788818V68.8141L0.788818 91.8752L0.788818 92.3752H1.28882H6.32703C10.6771 92.3752 13.8597 93.7191 15.9707 96.3382C18.0983 98.9779 19.2043 102.994 19.2043 108.472V124.545C19.2043 134.79 22.3703 143.191 28.7281 149.703C35.0982 156.227 43.9267 159.462 55.1456 159.462H66.7856H67.2856V158.962V137.124ZM173.299 45.8982C172.598 34.0282 168.441 24.9176 160.784 18.6381C153.146 12.2577 143.179 9.08903 130.93 9.08903C117.999 9.08903 107.684 12.1355 100.041 18.2835C92.5145 24.3148 88.7349 32.0269 88.7349 41.3854C88.7349 50.1227 91.3731 56.7016 96.7266 61.0186V65.3125C92.6007 66.7648 88.8796 69.341 85.5626 73.0217L85.5625 73.0217L85.5568 73.0282C82.2178 76.8656 80.5695 81.883 80.5695 88.0317C80.5695 95.8263 82.9224 102.079 87.6687 106.733L87.6734 106.737C92.3886 111.242 99.2519 114.65 108.218 116.992C108.218 116.992 108.219 116.992 108.219 116.992L130.454 122.932C134.124 123.912 136.823 125.182 138.595 126.714C140.352 128.232 141.202 130.006 141.202 132.057C141.202 134.952 140.187 137.058 138.199 138.463C136.179 139.89 133.087 140.642 128.846 140.642C124.109 140.642 120.517 139.566 118.002 137.481C115.494 135.403 113.987 132.263 113.533 127.986L113.486 127.539H113.036H85.5865H85.0561L85.0874 128.069C85.7887 139.939 89.9451 149.106 97.5992 155.501C105.237 161.999 115.205 165.227 127.456 165.227C140.386 165.227 150.644 162.182 158.172 156.032C165.812 150.003 169.651 142.291 169.651 132.931C169.651 124.194 167.013 117.615 161.66 113.298V109.004C165.787 107.547 169.453 104.908 172.658 101.111C176.105 97.1643 177.817 92.2095 177.817 86.2846C177.817 78.378 175.466 72.1217 170.716 67.5817C166 62.9589 159.136 59.5508 150.172 57.3251C148.187 56.7386 144.532 55.8055 139.218 54.5275C133.893 53.1305 130.141 52.0855 127.955 51.3912L127.955 51.3911L127.945 51.3882C124.032 50.2309 121.273 48.9741 119.612 47.6408C117.99 46.2239 117.184 44.4423 117.184 42.2589C117.184 39.3643 118.199 37.2587 120.187 35.8537C122.207 34.4263 125.299 33.6742 129.541 33.6742C134.34 33.6742 137.961 34.7234 140.476 36.7518C142.98 38.772 144.456 41.821 144.852 45.9752L144.896 46.4277H145.35H172.8H173.33L173.299 45.8982ZM128.811 96.636L128.811 96.6359L128.798 96.6324C125.217 95.7032 121.636 94.6577 118.055 93.4961L118.048 93.4938L118.041 93.4918C114.91 92.5759 112.614 91.2738 111.104 89.6166C109.602 87.9697 108.845 85.9384 108.845 83.4893C108.845 80.949 109.448 78.8893 110.618 77.275C111.763 75.6947 113.483 74.4985 115.82 73.7074C118.088 74.4217 122.676 75.7468 129.577 77.6808C129.578 77.681 129.579 77.6812 129.579 77.6814L140.345 80.8245C140.345 80.8246 140.345 80.8246 140.346 80.8246C143.476 81.7405 145.772 83.0426 147.283 84.6997C148.784 86.3466 149.541 88.3779 149.541 90.827C149.541 92.9275 148.883 94.925 147.547 96.8291L147.543 96.8342C146.362 98.5623 144.706 99.8219 142.554 100.609L128.811 96.636ZM191.114 23.5655V24.0655H191.614H198.042C203.514 24.0655 207.267 25.6106 209.453 28.579C211.677 31.5972 212.831 36.3025 212.831 42.783V57.2836C212.831 62.7176 214.065 67.3048 216.564 71.0152C218.976 74.5946 222.017 77.0207 225.687 78.2616V82.4277C222.017 83.6686 218.976 86.0947 216.564 89.6741C214.065 93.3845 212.831 97.9717 212.831 103.406V117.906C212.831 124.387 211.677 129.092 209.453 132.11C207.267 135.079 203.514 136.624 198.042 136.624H191.614H191.114V137.124V158.962V159.462H191.614H203.254C214.473 159.462 223.302 156.227 229.672 149.703C236.03 143.191 239.195 134.79 239.195 124.545V108.472C239.195 102.994 240.301 98.9779 242.429 96.3382C244.54 93.7191 247.723 92.3752 252.073 92.3752H257.111H257.611V91.8752V68.8141V68.3141H257.111H252.073C247.723 68.3141 244.54 66.9702 242.429 64.3511C240.301 61.7114 239.195 57.6954 239.195 52.2171V36.1442C239.195 25.8995 236.03 17.4986 229.672 10.9868C223.302 4.46232 214.473 1.22729 203.254 1.22729L191.614 1.22729H191.114V1.72729V23.5655Z" stroke="#00FA9A"/>
</svg>
