<svg width="1121" height="872" viewBox="0 0 1121 872" fill="none" xmlns="http://www.w3.org/2000/svg">
<path d="M178.421 223.104L1112.39 223.104L942.579 269.448H0.888916L178.421 223.104Z" fill="#313131"/>
<path d="M1097.42 239.034L1120.11 239.034V826.069L942.579 871.931H16.3264V333.172H1008.53L1097.42 239.034Z" fill="black"/>
<circle cx="419.643" cy="269.034" r="14.9655" fill="white" stroke="black" stroke-width="0.965517"/>
<circle cx="628.195" cy="269.034" r="14.9655" fill="white" stroke="black" stroke-width="0.965517"/>
<path fill-rule="evenodd" clip-rule="evenodd" d="M535.549 10.7814C522.054 8.87712 507.828 10.1373 495.719 14.0879C470.107 22.4446 454.134 38.7597 443.647 62.6997C431.738 89.8858 425.337 132.374 424.872 162.269C424.489 186.81 424.612 208.773 424.74 231.609C424.805 243.366 424.872 255.355 424.872 268.046C424.872 270.782 422.631 273 419.866 273C417.1 273 414.859 270.782 414.859 268.046C414.859 255.472 414.792 243.537 414.727 231.801C414.599 208.897 414.476 186.755 414.859 162.117C415.336 131.488 421.837 87.5725 434.46 58.7588C445.92 32.5969 463.892 14.0392 492.584 4.6776C506.199 0.235226 521.985 -1.14151 536.962 0.971986C551.922 3.08299 566.445 8.73472 577.171 18.7274C598.086 38.2113 612.789 63.0527 621.113 89.8503C621.147 89.9589 621.177 90.0686 621.203 90.1792C633.798 143.548 633.642 179.125 633.38 238.857C633.34 247.974 633.297 257.654 633.297 268.046C633.297 270.782 631.056 273 628.291 273C625.526 273 623.284 270.782 623.284 268.046C623.284 257.59 623.325 247.879 623.364 238.758C623.619 179.079 623.766 144.683 611.492 92.5993C603.615 67.333 589.789 44.0905 570.308 25.9419C561.47 17.7089 549.061 12.6881 535.549 10.7814Z" fill="#00FA9A"/>
<rect x="1.37167" y="269.931" width="940.725" height="586.069" fill="white" stroke="black" stroke-width="0.965517"/>
<path d="M943.062 855.852V269.817L1111.91 223.736V810.251L943.062 855.852Z" fill="white" stroke="black" stroke-width="0.965517"/>
<path d="M1027.49 245.793V747.862M1027.49 747.862L942.579 856.483L1111.91 809.655L1027.49 747.862Z" stroke="black" stroke-width="0.965517"/>
<rect width="223.861" height="265.497" rx="23.1724" transform="matrix(0.944803 -0.32764 0.327233 0.944943 620.939 432.791)" fill="black"/>
<circle cx="744.849" cy="448.551" r="11.5862" transform="rotate(-19.1133 744.849 448.551)" fill="white"/>
<path d="M681.449 529.598L691.4 526.149L695.463 537.874L693.017 538.722L689.71 529.181L684.653 530.934L687.959 540.475L685.512 541.323L681.449 529.598ZM696.939 526.29L694.607 527.098L693.896 525.045L696.228 524.237L696.939 526.29ZM697.424 527.741L700.349 536.181L698.05 536.978L695.125 528.538L697.424 527.741ZM710.33 530.589L711.824 530.071L713.298 534.324L711.131 535.075L710.317 532.727L704.06 534.895L704.874 537.243L702.707 537.994L701.233 533.741L702.481 533.309C702.537 531.879 702.309 530.425 701.797 528.947L700.955 526.517L708.065 524.053L710.33 530.589ZM708.031 531.385L706.432 526.771L703.69 527.721L703.872 528.247C704.414 529.812 704.679 531.247 704.665 532.552L708.031 531.385ZM714.182 531.388L711.257 522.947L718.088 520.58L718.754 522.501L714.222 524.072L716.481 530.591L714.182 531.388ZM723.381 518.506C724.717 518.043 725.919 518.08 726.988 518.617C728.057 519.154 728.823 520.091 729.286 521.426C729.749 522.762 729.727 523.971 729.219 525.055C728.712 526.138 727.79 526.911 726.454 527.374C725.13 527.833 723.927 527.796 722.848 527.263C721.775 526.715 721.009 525.778 720.55 524.454C720.091 523.129 720.115 521.925 720.623 520.842C721.137 519.744 722.057 518.965 723.381 518.506ZM725.794 525.469C726.484 525.23 726.917 524.816 727.093 524.228C727.277 523.625 727.241 522.956 726.987 522.223C726.737 521.5 726.355 520.965 725.841 520.615C725.335 520.251 724.737 520.189 724.047 520.428C723.369 520.663 722.937 521.082 722.754 521.685C722.567 522.277 722.598 522.934 722.849 523.657C723.103 524.391 723.489 524.937 724.006 525.298C724.519 525.647 725.116 525.704 725.794 525.469ZM729.562 518.756L728.896 516.834L736.729 514.12L737.395 516.041L734.636 516.997L736.895 523.517L734.596 524.313L732.337 517.794L729.562 518.756ZM745.671 524.154L743.372 524.951L743.722 520.176L737.519 513.846L739.916 513.015L743.577 516.786L744.004 516.638L744.383 511.468L746.698 510.665L745.671 524.154ZM755.603 514.017L757.754 513.271C757.923 514.182 757.744 515.029 757.218 515.812C756.693 516.595 755.899 517.17 754.837 517.538C753.545 517.986 752.365 517.941 751.296 517.404C750.234 516.852 749.473 515.914 749.014 514.59C748.559 513.276 748.578 512.074 749.071 510.983C749.574 509.889 750.467 509.12 751.748 508.676C752.788 508.316 753.734 508.27 754.587 508.538C755.437 508.796 756.084 509.319 756.53 510.109L754.378 510.855C753.966 510.336 753.321 510.228 752.446 510.531C751.876 510.729 751.479 511.032 751.253 511.441C751.027 511.851 750.961 512.315 751.055 512.834L753.994 511.816L754.603 513.573L751.631 514.603C751.882 515.116 752.233 515.473 752.682 515.673C753.128 515.862 753.641 515.856 754.221 515.655C755.184 515.321 755.645 514.775 755.603 514.017ZM760.623 515.294L757.698 506.853L760.752 505.795L763.689 508.75L764.116 508.602L764.595 504.463L767.633 503.41L770.558 511.851L768.325 512.625L766.458 507.239L766.031 507.387L765.629 510.579L763.708 511.245L761.417 508.986L760.99 509.134L762.856 514.52L760.623 515.294ZM773.88 501.006C775.216 500.544 776.418 500.581 777.487 501.118C778.556 501.655 779.322 502.591 779.785 503.927C780.247 505.262 780.225 506.472 779.718 507.555C779.21 508.638 778.289 509.411 776.953 509.874C775.628 510.333 774.426 510.296 773.346 509.763C772.273 509.215 771.507 508.279 771.048 506.954C770.589 505.629 770.614 504.425 771.121 503.342C771.636 502.244 772.555 501.466 773.88 501.006ZM776.293 507.969C776.983 507.73 777.415 507.316 777.592 506.728C777.775 506.125 777.74 505.457 777.486 504.723C777.235 504.001 776.853 503.465 776.34 503.115C775.833 502.751 775.235 502.689 774.546 502.928C773.867 503.163 773.436 503.582 773.253 504.185C773.065 504.777 773.097 505.435 773.347 506.157C773.602 506.891 773.987 507.438 774.505 507.798C775.018 508.147 775.614 508.204 776.293 507.969ZM792.67 498.946L792.818 499.373C793.283 499.335 793.704 499.434 794.08 499.671C794.457 499.909 794.734 500.285 794.912 500.799C795.451 502.354 794.724 503.476 792.732 504.167L787.773 505.885L784.848 497.445L789.676 495.772C790.518 495.48 791.236 495.446 791.829 495.669C792.429 495.878 792.844 496.317 793.076 496.985C793.341 497.751 793.206 498.405 792.67 498.946ZM789.448 503.447L791.632 502.69C792.431 502.413 792.722 501.963 792.506 501.339C792.286 500.704 791.776 500.525 790.977 500.802L788.793 501.559L789.448 503.447ZM787.672 498.324L788.236 499.95L790.19 499.272C790.846 499.045 791.082 498.663 790.896 498.126C790.706 497.579 790.283 497.419 789.626 497.647L787.672 498.324ZM802.904 500.642L802.654 499.919L802.227 500.067C801.907 500.877 801.227 501.462 800.187 501.823C799.267 502.141 798.446 502.125 797.724 501.775C796.998 501.413 796.498 500.838 796.225 500.05C795.963 499.295 796.02 498.539 796.396 497.784C796.772 497.028 797.534 496.451 798.684 496.053L800.934 495.273L800.86 495.06C800.556 494.184 799.906 493.919 798.91 494.264C798.023 494.571 797.651 495.037 797.794 495.662L795.512 496.453C795.257 495.646 795.382 494.892 795.886 494.19C796.387 493.477 797.158 492.94 798.198 492.579C799.402 492.162 800.427 492.095 801.273 492.378C802.13 492.658 802.746 493.339 803.122 494.423L805.023 499.908L802.904 500.642ZM800.36 499.721C800.918 499.527 801.315 499.206 801.552 498.756C801.788 498.306 801.816 497.819 801.634 497.293L801.451 496.768L799.645 497.394C798.594 497.758 798.2 498.318 798.461 499.073C798.731 499.85 799.363 500.066 800.36 499.721ZM811.722 494.404L813.988 493.619C814.198 494.576 814.043 495.457 813.525 496.262C813.018 497.063 812.239 497.646 811.188 498.01C809.885 498.462 808.712 498.421 807.669 497.887C806.622 497.342 805.865 496.397 805.398 495.05C804.935 493.715 804.947 492.509 805.432 491.433C805.918 490.358 806.812 489.594 808.115 489.143C809.166 488.779 810.124 488.747 810.988 489.048C811.86 489.335 812.503 489.897 812.916 490.735L810.633 491.526C810.219 490.933 809.607 490.778 808.797 491.058C808.118 491.294 807.7 491.696 807.542 492.266C807.384 492.836 807.434 493.493 807.692 494.237C807.95 494.982 808.321 495.54 808.805 495.911C809.297 496.268 809.876 496.331 810.544 496.1C811.453 495.785 811.846 495.219 811.722 494.404ZM829.015 489.46L830.51 488.942L831.983 493.195L829.816 493.946L829.002 491.598L822.746 493.766L823.559 496.114L821.392 496.865L819.918 492.612L821.166 492.18C821.222 490.75 820.994 489.296 820.482 487.818L819.64 485.388L826.75 482.924L829.015 489.46ZM826.716 490.256L825.117 485.642L822.375 486.592L822.557 487.118C823.099 488.683 823.364 490.118 823.35 491.423L826.716 490.256ZM833.76 480.256C835.095 479.793 836.298 479.83 837.367 480.367C838.436 480.904 839.201 481.84 839.664 483.176C840.127 484.511 840.105 485.721 839.597 486.804C839.09 487.887 838.168 488.66 836.833 489.123C835.508 489.582 834.306 489.545 833.226 489.012C832.153 488.464 831.387 487.528 830.928 486.203C830.469 484.879 830.493 483.675 831.001 482.591C831.516 481.493 832.435 480.715 833.76 480.256ZM836.173 487.218C836.862 486.979 837.295 486.566 837.472 485.977C837.655 485.374 837.62 484.706 837.365 483.972C837.115 483.25 836.733 482.714 836.22 482.365C835.713 482.001 835.115 481.938 834.426 482.177C833.747 482.412 833.316 482.831 833.132 483.434C832.945 484.027 832.977 484.684 833.227 485.406C833.481 486.14 833.867 486.687 834.384 487.047C834.898 487.396 835.494 487.454 836.173 487.218ZM700.942 560.318L698.643 561.114L696.384 554.595L692.935 555.79L695.194 562.309L692.895 563.106L689.97 554.666L698.017 551.877L700.942 560.318ZM704.26 549.474C705.596 549.012 706.798 549.049 707.867 549.586C708.936 550.123 709.702 551.059 710.165 552.395C710.627 553.73 710.605 554.94 710.098 556.023C709.59 557.106 708.669 557.879 707.333 558.342C706.008 558.801 704.806 558.764 703.726 558.231C702.653 557.683 701.888 556.747 701.428 555.422C700.969 554.097 700.994 552.893 701.501 551.81C702.016 550.712 702.935 549.934 704.26 549.474ZM706.673 556.437C707.363 556.198 707.796 555.784 707.972 555.196C708.155 554.593 708.12 553.925 707.866 553.191C707.615 552.469 707.233 551.933 706.72 551.583C706.214 551.219 705.616 551.157 704.926 551.396C704.247 551.631 703.816 552.05 703.633 552.653C703.445 553.245 703.477 553.903 703.727 554.625C703.982 555.359 704.367 555.906 704.885 556.266C705.398 556.615 705.994 556.672 706.673 556.437ZM720.132 544.213L722.349 543.445L725.274 551.885L713.582 555.937L710.657 547.497L712.891 546.723L715.156 553.258L717.668 552.388L715.403 545.852L717.62 545.084L719.885 551.62L722.397 550.749L720.132 544.213ZM732.018 553.227L729.719 554.024L730.069 549.249L723.866 542.919L726.263 542.089L729.924 545.86L730.351 545.712L730.73 540.541L733.045 539.738L732.018 553.227ZM743.306 545.637L740.432 542.862L738.593 543.499L739.759 546.866L737.461 547.662L734.536 539.222L736.835 538.425L737.927 541.578L739.799 540.929L740.316 537.219L742.664 536.405L742.006 541.195L745.72 544.8L743.306 545.637ZM751.807 546.37L749.508 547.166L749.858 542.391L743.655 536.062L746.052 535.231L749.713 539.002L750.14 538.854L750.519 533.683L752.834 532.881L751.807 546.37ZM763.756 531.009C763.077 531.244 762.646 531.663 762.463 532.266C762.287 532.855 762.324 533.51 762.574 534.233C762.825 534.955 763.203 535.498 763.709 535.862C764.226 536.223 764.824 536.285 765.503 536.05C766.16 535.822 766.577 535.414 766.753 534.826C766.94 534.234 766.905 533.566 766.647 532.821C766.392 532.088 766.009 531.546 765.495 531.197C764.993 530.844 764.413 530.781 763.756 531.009ZM758.895 530.78L761.112 530.012L761.379 530.784L761.806 530.636C762.104 529.797 762.778 529.196 763.829 528.831C764.924 528.452 765.939 528.566 766.873 529.175C767.803 529.772 768.494 530.722 768.946 532.025C769.401 533.338 769.448 534.518 769.086 535.562C768.725 536.607 767.997 537.319 766.902 537.699C765.873 538.055 764.998 537.991 764.278 537.505L763.851 537.653L765.257 541.709L762.958 542.505L758.895 530.78ZM773.249 525.567C774.584 525.104 775.786 525.141 776.855 525.678C777.924 526.215 778.69 527.152 779.153 528.487C779.616 529.823 779.594 531.032 779.086 532.116C778.579 533.199 777.657 533.972 776.321 534.435C774.997 534.894 773.795 534.857 772.715 534.323C771.642 533.776 770.876 532.839 770.417 531.515C769.958 530.19 769.982 528.986 770.49 527.903C771.004 526.805 771.924 526.026 773.249 525.567ZM775.661 532.53C776.351 532.291 776.784 531.877 776.96 531.289C777.144 530.686 777.108 530.017 776.854 529.284C776.604 528.561 776.222 528.025 775.708 527.676C775.202 527.312 774.604 527.249 773.914 527.489C773.236 527.724 772.805 528.143 772.621 528.746C772.434 529.338 772.466 529.995 772.716 530.718C772.97 531.451 773.356 531.998 773.873 532.359C774.387 532.708 774.983 532.765 775.661 532.53ZM784.029 522.383C785.233 521.966 786.338 522.024 787.345 522.558C788.359 523.078 789.078 523.95 789.503 525.177C789.928 526.403 789.872 527.55 789.335 528.619C788.805 529.673 787.889 530.426 786.586 530.878C785.185 531.363 783.942 531.297 782.857 530.68C781.784 530.059 780.953 528.9 780.365 527.203C779.105 523.568 779.526 521.191 781.627 520.07L783.675 518.974C783.984 518.806 784.181 518.664 784.263 518.55C784.343 518.424 784.359 518.259 784.313 518.054L786.168 517.411C786.377 518.014 786.436 518.557 786.347 519.042C786.257 519.526 785.894 519.947 785.257 520.302L782.635 521.707C782.075 522 781.7 522.369 781.511 522.814C781.322 523.26 781.287 523.848 781.405 524.58L781.832 524.432C782.103 523.48 782.835 522.797 784.029 522.383ZM784.116 528.846C784.633 529.169 785.231 529.214 785.909 528.978C786.588 528.743 787.025 528.341 787.22 527.77C787.414 527.2 787.396 526.581 787.165 525.913C786.933 525.245 786.567 524.753 786.064 524.437C785.562 524.12 784.972 524.08 784.293 524.315C783.604 524.554 783.159 524.953 782.961 525.512C782.762 526.072 782.779 526.685 783.01 527.353C783.242 528.021 783.61 528.518 784.116 528.846ZM793.727 518.471C795.063 518.008 796.265 518.045 797.334 518.582C798.403 519.119 799.169 520.055 799.631 521.391C800.094 522.726 800.072 523.936 799.565 525.019C799.057 526.102 798.136 526.875 796.8 527.338C795.475 527.797 794.273 527.76 793.193 527.227C792.12 526.679 791.354 525.743 790.895 524.418C790.436 523.093 790.461 521.889 790.968 520.806C791.483 519.708 792.402 518.93 793.727 518.471ZM796.14 525.433C796.829 525.194 797.262 524.781 797.439 524.192C797.622 523.589 797.587 522.921 797.333 522.187C797.082 521.465 796.7 520.929 796.187 520.58C795.68 520.215 795.082 520.153 794.393 520.392C793.714 520.627 793.283 521.046 793.1 521.649C792.912 522.241 792.944 522.899 793.194 523.621C793.449 524.355 793.834 524.902 794.352 525.262C794.865 525.611 795.461 525.668 796.14 525.433ZM799.907 518.72L799.241 516.799L807.074 514.084L807.74 516.006L804.981 516.962L807.241 523.481L804.942 524.278L802.682 517.758L799.907 518.72ZM813.942 521.158L811.709 521.932L808.784 513.492L811.017 512.718L812.667 517.48L813.062 517.344L814.679 511.449L816.945 510.664L819.87 519.104L817.637 519.878L815.992 515.132L815.598 515.269L813.942 521.158ZM829.609 509.053C829.419 508.505 828.843 508.398 827.879 508.732C826.96 509.051 826.541 509.54 826.622 510.198L824.52 510.927C824.289 509.977 824.436 509.147 824.963 508.437C825.489 507.727 826.3 507.183 827.395 506.803C828.49 506.424 829.434 506.354 830.228 506.594C831.03 506.819 831.554 507.287 831.801 507.999C832.085 508.82 831.986 509.455 831.504 509.904L831.652 510.331C832.469 510.318 833.037 510.771 833.356 511.69C833.625 512.468 833.497 513.229 832.971 513.976C832.441 514.711 831.606 515.276 830.468 515.671C829.176 516.118 828.1 516.215 827.24 515.962C826.386 515.693 825.753 515.122 825.34 514.248L827.458 513.513C827.872 514.106 828.62 514.214 829.704 513.839C830.788 513.463 831.226 512.974 831.017 512.372C830.914 512.076 830.731 511.901 830.467 511.845C830.213 511.786 829.845 511.84 829.364 512.007L827.984 512.485L827.375 510.728L828.673 510.278C829.483 509.998 829.795 509.589 829.609 509.053ZM708.473 582.05L706.174 582.846L703.915 576.327L700.466 577.522L702.725 584.041L700.426 584.838L697.501 576.398L705.548 573.609L708.473 582.05ZM712.835 572.997C712.156 573.232 711.725 573.651 711.541 574.254C711.365 574.843 711.402 575.498 711.653 576.221C711.903 576.943 712.281 577.487 712.788 577.851C713.305 578.211 713.903 578.274 714.582 578.038C715.238 577.811 715.655 577.403 715.831 576.814C716.018 576.222 715.983 575.554 715.725 574.809C715.471 574.076 715.087 573.535 714.574 573.185C714.071 572.832 713.491 572.769 712.835 572.997ZM707.973 572.769L710.19 572L710.458 572.772L710.885 572.624C711.182 571.785 711.857 571.184 712.908 570.82C714.002 570.44 715.017 570.555 715.951 571.163C716.882 571.76 717.573 572.71 718.024 574.013C718.479 575.326 718.526 576.506 718.165 577.551C717.803 578.596 717.075 579.308 715.981 579.687C714.952 580.044 714.077 579.979 713.357 579.493L712.93 579.641L714.335 583.697L712.036 584.493L707.973 572.769ZM722.327 567.555C723.663 567.093 724.865 567.13 725.934 567.667C727.003 568.204 727.769 569.14 728.232 570.475C728.694 571.811 728.672 573.021 728.165 574.104C727.657 575.187 726.736 575.96 725.4 576.423C724.075 576.882 722.873 576.845 721.793 576.312C720.72 575.764 719.954 574.828 719.495 573.503C719.036 572.178 719.061 570.974 719.568 569.891C720.083 568.793 721.002 568.015 722.327 567.555ZM724.74 574.518C725.43 574.279 725.862 573.865 726.039 573.277C726.222 572.674 726.187 572.006 725.933 571.272C725.682 570.55 725.3 570.014 724.787 569.664C724.28 569.3 723.682 569.238 722.993 569.477C722.314 569.712 721.883 570.131 721.7 570.734C721.512 571.326 721.544 571.984 721.794 572.706C722.049 573.44 722.434 573.987 722.952 574.347C723.465 574.696 724.061 574.753 724.74 574.518ZM737.971 571.827L739.11 575.112L736.876 575.885L735.738 572.601L735.59 572.652C734.2 573.134 732.982 573.121 731.935 572.613C730.885 572.094 730.143 571.211 729.711 569.963C729.282 568.726 729.311 567.588 729.797 566.549C730.294 565.506 731.222 564.736 732.583 564.24L732.813 564.161L731.601 560.663L733.834 559.889L735.046 563.387L735.276 563.307C736.631 562.862 737.825 562.896 738.861 563.408C739.908 563.915 740.645 564.788 741.074 566.025C741.514 567.295 741.464 568.459 740.923 569.517C740.389 570.56 739.406 571.33 737.971 571.827ZM731.96 569.183C732.203 569.884 732.585 570.402 733.105 570.736C733.633 571.056 734.246 571.107 734.943 570.89L735.124 570.828L733.428 565.934L733.264 565.991C732.571 566.256 732.118 566.683 731.905 567.271C731.703 567.856 731.721 568.494 731.96 569.183ZM737.357 570.054L737.488 570.008C738.192 569.74 738.647 569.319 738.853 568.744C739.066 568.156 739.051 567.511 738.808 566.81C738.565 566.11 738.18 565.599 737.652 565.28C737.132 564.945 736.512 564.89 735.792 565.115L735.661 565.16L737.357 570.054ZM750.733 562.199L750.972 562.889L744.929 564.983C745.519 566.471 746.465 566.99 747.767 566.538C748.599 566.25 749.022 565.772 749.036 565.105L751.368 564.297C751.497 565.234 751.312 566.064 750.815 566.788C750.318 567.512 749.511 568.067 748.395 568.454C747.07 568.913 745.879 568.873 744.821 568.332C743.774 567.787 743.015 566.836 742.544 565.479C742.078 564.132 742.091 562.932 742.584 561.878C743.074 560.814 743.97 560.055 745.272 559.604C746.52 559.171 747.635 559.202 748.615 559.696C749.596 560.19 750.302 561.025 750.733 562.199ZM748.095 562.176C747.608 561.265 746.861 560.985 745.853 561.334C744.846 561.683 744.389 562.381 744.482 563.428L748.095 562.176ZM758.678 561.47L760.944 560.684C761.153 561.642 760.999 562.523 760.481 563.328C759.974 564.129 759.194 564.712 758.144 565.076C756.841 565.527 755.668 565.486 754.624 564.953C753.577 564.408 752.821 563.463 752.354 562.116C751.891 560.781 751.902 559.575 752.388 558.499C752.874 557.424 753.768 556.66 755.071 556.208C756.122 555.844 757.079 555.813 757.944 556.114C758.816 556.4 759.458 556.963 759.871 557.801L757.589 558.592C757.175 557.999 756.563 557.843 755.753 558.124C755.074 558.359 754.656 558.762 754.497 559.332C754.339 559.901 754.389 560.559 754.647 561.303C754.905 562.047 755.276 562.605 755.761 562.977C756.252 563.334 756.832 563.397 757.5 563.165C758.408 562.851 758.801 562.285 758.678 561.47ZM762.772 552.16L760.441 552.968L759.729 550.915L762.061 550.107L762.772 552.16ZM763.257 553.611L766.182 562.051L763.883 562.848L760.958 554.407L763.257 553.611ZM770.862 560.429L768.629 561.203L765.704 552.763L767.937 551.989L769.588 556.751L769.982 556.614L771.599 550.72L773.866 549.934L776.791 558.375L774.557 559.149L772.913 554.403L772.519 554.54L770.862 560.429ZM769.831 547.58L771.604 546.966C771.808 547.766 771.729 548.474 771.366 549.09C771.01 549.692 770.378 550.15 769.469 550.465C768.561 550.779 767.781 550.811 767.129 550.558C766.474 550.295 765.979 549.786 765.644 549.031L767.417 548.417C767.552 548.701 767.751 548.902 768.012 549.02C768.274 549.138 768.591 549.132 768.963 549.003C769.696 548.749 769.986 548.275 769.831 547.58ZM787.325 554.724L785.026 555.521L783.86 552.155L780.346 553.372L781.512 556.739L779.213 557.535L776.288 549.095L778.587 548.298L779.68 551.451L783.194 550.233L782.101 547.08L784.4 546.284L787.325 554.724ZM791.982 553.11L789.749 553.884L786.824 545.444L789.057 544.67L790.708 549.432L791.102 549.295L792.719 543.401L794.985 542.616L797.91 551.056L795.677 551.83L794.033 547.084L793.638 547.221L791.982 553.11ZM800.333 550.216L797.408 541.776L800.462 540.718L803.399 543.673L803.826 543.525L804.305 539.386L807.343 538.333L810.268 546.774L808.035 547.548L806.168 542.161L805.741 542.309L805.339 545.502L803.418 546.168L801.127 543.908L800.7 544.056L802.566 549.443L800.333 550.216ZM710.221 599.303C709.543 599.538 709.112 599.957 708.928 600.56C708.752 601.149 708.789 601.804 709.039 602.527C709.29 603.249 709.668 603.792 710.174 604.157C710.692 604.517 711.29 604.579 711.968 604.344C712.625 604.117 713.042 603.709 713.218 603.12C713.405 602.528 713.37 601.86 713.112 601.115C712.858 600.382 712.474 599.84 711.96 599.491C711.458 599.138 710.878 599.075 710.221 599.303ZM705.36 599.075L707.577 598.306L707.844 599.078L708.271 598.93C708.569 598.091 709.244 597.49 710.294 597.125C711.389 596.746 712.404 596.86 713.338 597.469C714.268 598.066 714.959 599.016 715.411 600.319C715.866 601.632 715.913 602.812 715.552 603.857C715.19 604.901 714.462 605.614 713.367 605.993C712.338 606.35 711.464 606.285 710.743 605.799L710.316 605.947L711.722 610.003L709.423 610.799L705.36 599.075ZM725.06 596.497L725.299 597.186L719.256 599.28C719.845 600.768 720.791 601.287 722.094 600.835C722.926 600.547 723.349 600.069 723.363 599.402L725.695 598.594C725.823 599.531 725.639 600.361 725.142 601.085C724.644 601.809 723.838 602.365 722.721 602.752C721.396 603.211 720.205 603.17 719.147 602.629C718.1 602.084 717.341 601.133 716.871 599.776C716.404 598.429 716.417 597.229 716.911 596.175C717.4 595.111 718.296 594.353 719.599 593.901C720.847 593.469 721.961 593.499 722.942 593.993C723.922 594.488 724.628 595.322 725.06 596.497ZM722.421 596.473C721.934 595.563 721.187 595.282 720.18 595.631C719.173 595.98 718.716 596.678 718.809 597.725L722.421 596.473ZM734.465 598.443L731.591 595.668L729.751 596.305L730.918 599.672L728.619 600.468L725.694 592.028L727.993 591.231L729.086 594.384L730.958 593.735L731.474 590.025L733.823 589.211L733.165 594.001L736.879 597.606L734.465 598.443ZM740.594 588.777C739.915 589.013 739.484 589.432 739.301 590.035C739.125 590.623 739.162 591.279 739.412 592.001C739.663 592.724 740.041 593.267 740.547 593.631C741.064 593.991 741.662 594.054 742.341 593.819C742.998 593.591 743.415 593.183 743.591 592.595C743.778 592.003 743.743 591.334 743.485 590.59C743.231 589.856 742.847 589.315 742.333 588.966C741.831 588.613 741.251 588.55 740.594 588.777ZM735.733 588.549L737.95 587.781L738.217 588.553L738.644 588.405C738.942 587.566 739.616 586.964 740.667 586.6C741.762 586.221 742.777 586.335 743.711 586.943C744.641 587.54 745.332 588.49 745.784 589.793C746.239 591.107 746.286 592.286 745.924 593.331C745.563 594.376 744.835 595.088 743.74 595.467C742.711 595.824 741.837 595.759 741.116 595.273L740.689 595.421L742.095 599.477L739.796 600.274L735.733 588.549ZM753.309 595.591L751.01 596.388L751.36 591.613L745.157 585.283L747.554 584.453L751.215 588.224L751.642 588.076L752.021 582.905L754.336 582.102L753.309 595.591ZM755.77 583.758L755.104 581.836L762.937 579.122L763.603 581.043L760.844 581.999L763.103 588.518L760.804 589.315L758.545 582.796L755.77 583.758ZM773.81 579.603L774.049 580.292L768.006 582.386C768.596 583.874 769.542 584.393 770.844 583.941C771.676 583.653 772.099 583.175 772.113 582.508L774.445 581.7C774.574 582.637 774.389 583.467 773.892 584.191C773.395 584.915 772.588 585.471 771.472 585.858C770.147 586.317 768.956 586.276 767.898 585.735C766.85 585.19 766.092 584.239 765.621 582.882C765.155 581.535 765.168 580.335 765.661 579.281C766.151 578.217 767.047 577.459 768.349 577.007C769.597 576.575 770.712 576.605 771.692 577.099C772.673 577.593 773.379 578.428 773.81 579.603ZM771.172 579.579C770.685 578.669 769.938 578.388 768.93 578.737C767.923 579.086 767.466 579.784 767.559 580.831L771.172 579.579ZM779.306 575.362C778.627 575.597 778.196 576.017 778.013 576.62C777.837 577.208 777.874 577.863 778.124 578.586C778.374 579.309 778.753 579.852 779.259 580.216C779.776 580.576 780.374 580.639 781.053 580.404C781.71 580.176 782.126 579.768 782.303 579.18C782.49 578.587 782.454 577.919 782.196 577.175C781.942 576.441 781.558 575.9 781.045 575.55C780.543 575.197 779.963 575.135 779.306 575.362ZM774.445 575.134L776.662 574.366L776.929 575.138L777.356 574.99C777.654 574.151 778.328 573.549 779.379 573.185C780.474 572.805 781.488 572.92 782.423 573.528C783.353 574.125 784.044 575.075 784.495 576.378C784.951 577.692 784.998 578.871 784.636 579.916C784.275 580.961 783.547 581.673 782.452 582.052C781.423 582.409 780.548 582.344 779.828 581.858L779.401 582.006L780.807 586.062L778.508 586.859L774.445 575.134ZM788.798 569.921C790.134 569.458 791.336 569.495 792.405 570.032C793.474 570.569 794.24 571.505 794.703 572.841C795.166 574.176 795.143 575.386 794.636 576.469C794.128 577.552 793.207 578.325 791.871 578.788C790.547 579.247 789.344 579.21 788.265 578.677C787.192 578.129 786.426 577.193 785.967 575.868C785.508 574.543 785.532 573.34 786.039 572.256C786.554 571.158 787.474 570.38 788.798 569.921ZM791.211 576.883C791.901 576.644 792.334 576.231 792.51 575.642C792.694 575.039 792.658 574.371 792.404 573.637C792.154 572.915 791.772 572.379 791.258 572.03C790.752 571.665 790.154 571.603 789.464 571.842C788.785 572.077 788.354 572.496 788.171 573.099C787.984 573.692 788.015 574.349 788.266 575.071C788.52 575.805 788.906 576.352 789.423 576.712C789.936 577.061 790.532 577.118 791.211 576.883ZM798.121 576.383L795.196 567.943L798.25 566.884L801.187 569.84L801.614 569.692L802.093 565.553L805.131 564.5L808.056 572.941L805.822 573.714L803.956 568.328L803.529 568.476L803.127 571.669L801.206 572.335L798.914 570.075L798.487 570.223L800.354 575.609L798.121 576.383ZM819.953 563.576L820.1 564.003C820.565 563.964 820.986 564.064 821.363 564.301C821.739 564.538 822.017 564.914 822.195 565.429C822.734 566.983 822.007 568.106 820.014 568.796L815.055 570.515L812.13 562.074L816.958 560.401C817.801 560.109 818.519 560.075 819.111 560.299C819.711 560.508 820.127 560.946 820.358 561.614C820.624 562.381 820.488 563.034 819.953 563.576ZM816.73 568.077L818.914 567.32C819.713 567.043 820.005 566.593 819.788 565.968C819.568 565.334 819.059 565.155 818.26 565.431L816.076 566.188L816.73 568.077ZM814.955 562.953L815.518 564.579L817.472 563.902C818.129 563.674 818.364 563.292 818.179 562.756C817.989 562.208 817.566 562.049 816.909 562.276L814.955 562.953ZM723.862 626.459L721.563 627.255L719.304 620.736L715.856 621.931L718.115 628.45L715.816 629.247L712.891 620.807L720.937 618.018L723.862 626.459ZM727.181 615.616C728.516 615.153 729.718 615.19 730.787 615.727C731.856 616.264 732.622 617.2 733.085 618.536C733.548 619.871 733.526 621.081 733.018 622.164C732.511 623.247 731.589 624.02 730.254 624.483C728.929 624.942 727.727 624.905 726.647 624.372C725.574 623.824 724.808 622.888 724.349 621.563C723.89 620.238 723.914 619.034 724.422 617.951C724.936 616.853 725.856 616.075 727.181 615.616ZM729.593 622.578C730.283 622.339 730.716 621.926 730.892 621.337C731.076 620.734 731.04 620.066 730.786 619.332C730.536 618.61 730.154 618.074 729.64 617.725C729.134 617.36 728.536 617.298 727.846 617.537C727.168 617.772 726.737 618.191 726.553 618.794C726.366 619.386 726.398 620.044 726.648 620.766C726.902 621.5 727.288 622.047 727.805 622.407C728.319 622.756 728.915 622.813 729.593 622.578ZM744.037 617.334L745.531 616.816L747.005 621.069L744.838 621.82L744.024 619.472L737.767 621.64L738.581 623.988L736.413 624.74L734.94 620.486L736.188 620.054C736.244 618.624 736.016 617.17 735.504 615.693L734.662 613.262L741.772 610.798L744.037 617.334ZM741.738 618.131L740.139 613.516L737.397 614.466L737.579 614.992C738.121 616.557 738.386 617.992 738.372 619.297L741.738 618.131ZM753.078 616.334L752.827 615.612L752.401 615.76C752.08 616.57 751.4 617.155 750.36 617.515C749.441 617.834 748.62 617.818 747.897 617.468C747.171 617.106 746.672 616.531 746.398 615.743C746.137 614.988 746.194 614.232 746.569 613.477C746.945 612.721 747.708 612.144 748.857 611.746L751.107 610.966L751.033 610.753C750.73 609.877 750.08 609.611 749.084 609.957C748.197 610.264 747.825 610.73 747.968 611.355L745.685 612.146C745.43 611.339 745.555 610.585 746.06 609.883C746.561 609.169 747.331 608.633 748.371 608.272C749.575 607.855 750.6 607.788 751.447 608.071C752.304 608.35 752.92 609.032 753.296 610.116L755.196 615.6L753.078 616.334ZM750.533 615.414C751.092 615.22 751.489 614.899 751.725 614.449C751.962 613.999 751.989 613.511 751.807 612.986L751.625 612.46L749.819 613.086C748.768 613.45 748.373 614.01 748.635 614.766C748.904 615.543 749.537 615.759 750.533 615.414ZM759.447 606.586C758.768 606.821 758.337 607.24 758.154 607.844C757.977 608.432 758.015 609.087 758.265 609.81C758.515 610.532 758.894 611.076 759.4 611.44C759.917 611.8 760.515 611.863 761.194 611.627C761.851 611.4 762.267 610.992 762.444 610.403C762.631 609.811 762.595 609.143 762.337 608.399C762.083 607.665 761.699 607.124 761.186 606.774C760.683 606.421 760.104 606.358 759.447 606.586ZM754.586 606.358L756.802 605.59L757.07 606.361L757.497 606.213C757.795 605.374 758.469 604.773 759.52 604.409C760.615 604.029 761.629 604.144 762.564 604.752C763.494 605.349 764.185 606.299 764.636 607.602C765.092 608.916 765.139 610.095 764.777 611.14C764.416 612.185 763.688 612.897 762.593 613.276C761.564 613.633 760.689 613.568 759.969 613.082L759.542 613.23L760.948 617.286L758.649 618.083L754.586 606.358ZM772.161 613.4L769.862 614.197L770.213 609.422L764.009 603.092L766.407 602.261L770.068 606.032L770.495 605.884L770.874 600.713L773.189 599.911L772.161 613.4ZM785.716 605.024L783.417 605.821L782.251 602.454L778.737 603.672L779.903 607.038L777.604 607.835L774.679 599.395L776.978 598.598L778.071 601.751L781.585 600.533L780.492 597.38L782.791 596.583L785.716 605.024ZM789.033 594.181C790.368 593.718 791.571 593.756 792.64 594.293C793.709 594.829 794.475 595.766 794.937 597.101C795.4 598.437 795.378 599.646 794.87 600.73C794.363 601.813 793.441 602.586 792.106 603.049C790.781 603.508 789.579 603.471 788.499 602.938C787.426 602.39 786.66 601.453 786.201 600.129C785.742 598.804 785.766 597.6 786.274 596.517C786.789 595.419 787.708 594.64 789.033 594.181ZM791.446 601.144C792.135 600.905 792.568 600.491 792.745 599.903C792.928 599.3 792.893 598.632 792.638 597.898C792.388 597.175 792.006 596.64 791.493 596.29C790.986 595.926 790.388 595.864 789.699 596.103C789.02 596.338 788.589 596.757 788.405 597.36C788.218 597.952 788.25 598.61 788.5 599.332C788.754 600.066 789.14 600.612 789.657 600.973C790.171 601.322 790.767 601.379 791.446 601.144ZM804.201 598.618L801.327 595.844L799.488 596.481L800.654 599.847L798.355 600.644L795.43 592.203L797.729 591.407L798.822 594.56L800.694 593.911L801.21 590.2L803.559 589.387L802.901 594.176L806.615 597.782L804.201 598.618Z" fill="black"/>
<circle cx="367.542" cy="330.828" r="14.9655" fill="black" stroke="black" stroke-width="0.965517"/>
<circle cx="576.093" cy="330.828" r="14.9655" fill="black" stroke="black" stroke-width="0.965517"/>
<rect width="223.861" height="265.497" rx="23.1724" transform="matrix(0.944803 -0.32764 0.327233 0.944943 611.724 425.709)" fill="#00FA9A"/>
<circle cx="738.162" cy="448.768" r="11.5862" transform="rotate(-19.1133 738.162 448.768)" fill="white"/>
<path d="M669.937 515.727L680.244 512.155L684.452 524.299L681.918 525.177L678.494 515.295L673.255 517.111L676.68 526.992L674.146 527.87L669.937 515.727ZM685.981 512.301L683.566 513.138L682.829 511.012L685.244 510.175L685.981 512.301ZM686.482 513.803L689.512 522.545L687.131 523.37L684.101 514.628L686.482 513.803ZM699.85 516.753L701.398 516.217L702.924 520.622L700.679 521.4L699.836 518.967L693.356 521.213L694.199 523.645L691.954 524.423L690.428 520.018L691.72 519.57C691.778 518.089 691.542 516.584 691.012 515.053L690.14 512.536L697.504 509.984L699.85 516.753ZM697.469 517.578L695.813 512.799L692.972 513.783L693.161 514.327C693.723 515.949 693.997 517.435 693.982 518.786L697.469 517.578ZM703.839 517.58L700.81 508.838L707.885 506.386L708.574 508.376L703.88 510.003L706.22 516.755L703.839 517.58ZM713.367 504.239C714.751 503.76 715.996 503.798 717.103 504.354C718.21 504.91 719.003 505.88 719.483 507.263C719.962 508.647 719.939 509.899 719.413 511.021C718.888 512.143 717.933 512.944 716.55 513.423C715.178 513.899 713.933 513.86 712.814 513.308C711.703 512.74 710.91 511.771 710.435 510.399C709.959 509.027 709.984 507.78 710.51 506.658C711.043 505.521 711.995 504.714 713.367 504.239ZM715.866 511.45C716.581 511.203 717.029 510.774 717.212 510.165C717.402 509.54 717.365 508.848 717.102 508.088C716.842 507.34 716.447 506.785 715.915 506.423C715.391 506.046 714.771 505.981 714.057 506.229C713.354 506.472 712.908 506.907 712.718 507.531C712.524 508.144 712.556 508.825 712.816 509.574C713.079 510.333 713.479 510.9 714.014 511.273C714.546 511.635 715.163 511.694 715.866 511.45ZM719.768 504.497L719.079 502.507L727.191 499.696L727.881 501.686L725.024 502.676L727.364 509.428L724.982 510.253L722.643 503.501L719.768 504.497ZM736.453 510.088L734.072 510.914L734.434 505.968L728.01 499.412L730.493 498.552L734.285 502.458L734.727 502.304L735.119 496.949L737.517 496.118L736.453 510.088ZM746.74 499.589L748.968 498.817C749.142 499.76 748.957 500.637 748.413 501.448C747.868 502.259 747.046 502.855 745.946 503.236C744.608 503.7 743.386 503.654 742.279 503.097C741.179 502.526 740.391 501.554 739.916 500.182C739.444 498.822 739.464 497.577 739.974 496.447C740.496 495.314 741.42 494.518 742.746 494.058C743.824 493.685 744.804 493.637 745.688 493.915C746.568 494.182 747.238 494.724 747.699 495.542L745.471 496.314C745.044 495.776 744.376 495.665 743.469 495.979C742.88 496.183 742.468 496.498 742.234 496.922C742 497.346 741.932 497.826 742.029 498.364L745.073 497.309L745.704 499.129L742.626 500.196C742.886 500.728 743.249 501.097 743.715 501.304C744.176 501.5 744.707 501.494 745.308 501.285C746.306 500.94 746.783 500.374 746.74 499.589ZM751.939 500.912L748.91 492.17L752.073 491.073L755.115 494.134L755.557 493.981L756.053 489.694L759.199 488.604L762.229 497.346L759.916 498.147L757.982 492.569L757.54 492.722L757.124 496.029L755.134 496.718L752.761 494.378L752.319 494.532L754.252 500.11L751.939 500.912ZM765.669 486.114C767.053 485.635 768.298 485.673 769.405 486.229C770.512 486.785 771.305 487.755 771.785 489.138C772.264 490.522 772.241 491.774 771.715 492.896C771.19 494.018 770.235 494.819 768.852 495.298C767.48 495.774 766.235 495.735 765.116 495.183C764.005 494.616 763.212 493.646 762.737 492.274C762.261 490.902 762.286 489.655 762.812 488.533C763.345 487.396 764.297 486.59 765.669 486.114ZM768.168 493.325C768.883 493.078 769.331 492.649 769.514 492.04C769.704 491.415 769.667 490.723 769.404 489.964C769.144 489.215 768.749 488.66 768.217 488.298C767.693 487.921 767.073 487.857 766.359 488.104C765.656 488.348 765.21 488.782 765.02 489.406C764.826 490.02 764.858 490.701 765.118 491.449C765.381 492.209 765.781 492.775 766.316 493.148C766.848 493.51 767.465 493.569 768.168 493.325ZM785.131 483.98L785.284 484.422C785.765 484.383 786.201 484.486 786.591 484.731C786.981 484.977 787.268 485.367 787.453 485.9C788.011 487.51 787.258 488.672 785.195 489.387L780.058 491.167L777.029 482.425L782.029 480.693C782.902 480.39 783.646 480.355 784.259 480.586C784.88 480.803 785.311 481.257 785.551 481.949C785.826 482.742 785.686 483.42 785.131 483.98ZM781.793 488.642L784.055 487.858C784.883 487.571 785.185 487.105 784.961 486.458C784.733 485.801 784.205 485.615 783.377 485.902L781.115 486.686L781.793 488.642ZM779.954 483.336L780.538 485.019L782.562 484.318C783.242 484.082 783.486 483.687 783.293 483.131C783.097 482.564 782.658 482.399 781.978 482.634L779.954 483.336ZM795.73 485.736L795.471 484.988L795.029 485.141C794.697 485.98 793.993 486.586 792.916 486.959C791.963 487.289 791.113 487.273 790.365 486.91C789.613 486.535 789.095 485.94 788.812 485.124C788.541 484.341 788.6 483.559 788.99 482.776C789.379 481.994 790.169 481.396 791.359 480.984L793.689 480.176L793.613 479.955C793.298 479.048 792.625 478.773 791.593 479.131C790.675 479.449 790.29 479.932 790.438 480.579L788.074 481.398C787.81 480.563 787.939 479.781 788.462 479.054C788.98 478.315 789.778 477.759 790.855 477.386C792.103 476.954 793.164 476.884 794.041 477.178C794.928 477.467 795.567 478.173 795.956 479.295L797.924 484.976L795.73 485.736ZM793.095 484.783C793.673 484.582 794.085 484.249 794.33 483.783C794.575 483.317 794.603 482.812 794.414 482.268L794.226 481.724L792.355 482.372C791.266 482.749 790.858 483.329 791.129 484.111C791.408 484.917 792.063 485.14 793.095 484.783ZM804.863 479.276L807.21 478.462C807.427 479.454 807.267 480.367 806.73 481.2C806.205 482.03 805.398 482.634 804.31 483.011C802.96 483.478 801.746 483.436 800.665 482.883C799.581 482.319 798.797 481.34 798.313 479.945C797.834 478.562 797.846 477.313 798.349 476.199C798.852 475.085 799.778 474.294 801.127 473.827C802.216 473.449 803.208 473.417 804.103 473.729C805.006 474.026 805.671 474.608 806.099 475.476L803.735 476.295C803.306 475.681 802.673 475.52 801.834 475.811C801.131 476.054 800.697 476.471 800.533 477.061C800.37 477.651 800.421 478.332 800.689 479.103C800.956 479.874 801.34 480.452 801.842 480.837C802.351 481.207 802.951 481.272 803.643 481.032C804.584 480.706 804.991 480.12 804.863 479.276ZM822.774 474.155L824.321 473.618L825.848 478.023L823.603 478.801L822.76 476.369L816.28 478.615L817.123 481.047L814.878 481.825L813.351 477.42L814.644 476.972C814.702 475.491 814.466 473.986 813.936 472.455L813.064 469.938L820.428 467.386L822.774 474.155ZM820.393 474.98L818.736 470.201L815.896 471.185L816.085 471.729C816.647 473.351 816.92 474.837 816.906 476.188L820.393 474.98ZM827.688 464.622C829.071 464.143 830.316 464.181 831.423 464.737C832.531 465.294 833.324 466.263 833.803 467.647C834.283 469.03 834.259 470.283 833.734 471.404C833.208 472.526 832.254 473.327 830.87 473.806C829.499 474.282 828.253 474.244 827.135 473.691C826.024 473.124 825.231 472.154 824.755 470.782C824.28 469.41 824.305 468.163 824.83 467.041C825.363 465.904 826.316 465.098 827.688 464.622ZM830.187 471.834C830.901 471.586 831.35 471.158 831.532 470.548C831.722 469.924 831.685 469.231 831.422 468.472C831.163 467.723 830.767 467.168 830.235 466.807C829.711 466.429 829.092 466.365 828.377 466.612C827.674 466.856 827.228 467.29 827.038 467.915C826.844 468.528 826.877 469.209 827.136 469.957C827.399 470.717 827.799 471.283 828.335 471.656C828.866 472.018 829.484 472.077 830.187 471.834ZM690.185 547.712L687.804 548.537L685.464 541.785L681.892 543.023L684.232 549.775L681.851 550.6L678.822 541.858L687.155 538.97L690.185 547.712ZM693.622 536.482C695.005 536.002 696.25 536.041 697.357 536.597C698.464 537.153 699.258 538.123 699.737 539.506C700.216 540.889 700.193 542.142 699.668 543.264C699.142 544.386 698.188 545.187 696.804 545.666C695.432 546.141 694.187 546.103 693.069 545.551C691.958 544.983 691.164 544.014 690.689 542.642C690.213 541.27 690.238 540.023 690.764 538.901C691.297 537.764 692.25 536.957 693.622 536.482ZM696.121 543.693C696.835 543.446 697.283 543.017 697.466 542.408C697.656 541.783 697.619 541.091 697.356 540.331C697.097 539.583 696.701 539.028 696.169 538.666C695.645 538.289 695.025 538.224 694.311 538.472C693.608 538.715 693.162 539.149 692.972 539.774C692.778 540.387 692.811 541.068 693.07 541.817C693.333 542.576 693.733 543.143 694.268 543.516C694.8 543.878 695.418 543.937 696.121 543.693ZM710.061 531.033L712.357 530.237L715.386 538.979L703.277 543.175L700.247 534.433L702.56 533.632L704.906 540.401L707.508 539.499L705.163 532.73L707.459 531.934L709.804 538.703L712.407 537.802L710.061 531.033ZM722.371 540.369L719.99 541.194L720.352 536.248L713.928 529.693L716.411 528.832L720.203 532.738L720.645 532.585L721.037 527.229L723.435 526.398L722.371 540.369ZM734.062 532.507L731.085 529.633L729.181 530.293L730.389 533.78L728.008 534.605L724.978 525.863L727.359 525.038L728.491 528.303L730.43 527.632L730.965 523.789L733.397 522.946L732.716 527.906L736.563 531.641L734.062 532.507ZM742.866 533.266L740.485 534.091L740.848 529.146L734.423 522.59L736.906 521.73L740.698 525.635L741.14 525.482L741.532 520.126L743.93 519.295L742.866 533.266ZM755.242 517.357C754.539 517.6 754.093 518.034 753.903 518.659C753.721 519.268 753.759 519.947 754.018 520.696C754.278 521.444 754.669 522.007 755.194 522.384C755.73 522.757 756.349 522.822 757.052 522.578C757.732 522.342 758.164 521.92 758.346 521.31C758.54 520.697 758.503 520.005 758.236 519.234C757.973 518.474 757.575 517.913 757.044 517.552C756.523 517.186 755.923 517.121 755.242 517.357ZM750.207 517.12L752.504 516.325L752.781 517.124L753.223 516.971C753.531 516.102 754.23 515.479 755.318 515.101C756.452 514.709 757.503 514.827 758.47 515.457C759.434 516.076 760.15 517.059 760.617 518.409C761.089 519.769 761.137 520.991 760.763 522.073C760.389 523.155 759.635 523.893 758.501 524.286C757.435 524.655 756.529 524.588 755.783 524.084L755.341 524.238L756.797 528.439L754.416 529.264L750.207 517.12ZM765.074 511.721C766.457 511.241 767.702 511.28 768.81 511.836C769.917 512.392 770.71 513.362 771.189 514.745C771.669 516.128 771.646 517.381 771.12 518.503C770.594 519.625 769.64 520.426 768.257 520.905C766.885 521.38 765.639 521.342 764.521 520.79C763.41 520.222 762.617 519.253 762.141 517.881C761.666 516.509 761.691 515.262 762.216 514.14C762.749 513.003 763.702 512.196 765.074 511.721ZM767.573 518.932C768.287 518.684 768.736 518.256 768.918 517.647C769.108 517.022 769.071 516.33 768.808 515.57C768.549 514.822 768.153 514.267 767.622 513.905C767.097 513.528 766.478 513.463 765.763 513.711C765.06 513.954 764.614 514.388 764.424 515.013C764.23 515.626 764.263 516.307 764.522 517.055C764.786 517.815 765.185 518.382 765.721 518.755C766.253 519.117 766.87 519.176 767.573 518.932ZM776.239 508.423C777.486 507.991 778.631 508.051 779.674 508.604C780.724 509.142 781.469 510.046 781.909 511.316C782.349 512.586 782.291 513.775 781.735 514.882C781.186 515.974 780.237 516.753 778.888 517.221C777.436 517.724 776.149 517.656 775.026 517.016C773.914 516.373 773.053 515.172 772.444 513.415C771.14 509.65 771.575 507.188 773.751 506.028L775.873 504.892C776.193 504.718 776.396 504.571 776.482 504.453C776.564 504.323 776.581 504.152 776.533 503.94L778.455 503.274C778.671 503.897 778.733 504.46 778.64 504.962C778.547 505.464 778.171 505.899 777.511 506.268L774.796 507.723C774.215 508.026 773.827 508.408 773.631 508.87C773.436 509.331 773.399 509.941 773.522 510.698L773.964 510.545C774.245 509.559 775.003 508.851 776.239 508.423ZM776.33 515.116C776.865 515.452 777.484 515.497 778.187 515.254C778.89 515.01 779.342 514.593 779.544 514.003C779.746 513.412 779.727 512.771 779.487 512.079C779.247 511.387 778.868 510.878 778.348 510.55C777.828 510.222 777.216 510.18 776.513 510.424C775.799 510.671 775.339 511.085 775.133 511.664C774.927 512.243 774.944 512.879 775.184 513.57C775.424 514.262 775.806 514.777 776.33 515.116ZM786.284 504.371C787.667 503.891 788.912 503.93 790.019 504.486C791.126 505.042 791.92 506.012 792.399 507.395C792.878 508.778 792.855 510.031 792.33 511.153C791.804 512.275 790.85 513.076 789.466 513.555C788.094 514.03 786.849 513.992 785.731 513.44C784.62 512.872 783.826 511.903 783.351 510.531C782.876 509.159 782.901 507.912 783.426 506.79C783.959 505.652 784.912 504.846 786.284 504.371ZM788.783 511.582C789.497 511.334 789.945 510.906 790.128 510.297C790.318 509.672 790.281 508.98 790.018 508.22C789.759 507.472 789.363 506.917 788.831 506.555C788.307 506.178 787.688 506.113 786.973 506.361C786.27 506.604 785.824 507.038 785.634 507.663C785.44 508.276 785.473 508.957 785.732 509.705C785.995 510.465 786.395 511.032 786.931 511.405C787.462 511.766 788.08 511.826 788.783 511.582ZM792.685 504.629L791.995 502.639L800.108 499.828L800.797 501.818L797.94 502.808L800.28 509.56L797.899 510.385L795.559 503.633L792.685 504.629ZM807.221 507.155L804.908 507.956L801.878 499.214L804.191 498.413L805.901 503.345L806.309 503.203L807.984 497.098L810.331 496.285L813.361 505.027L811.048 505.828L809.344 500.913L808.936 501.055L807.221 507.155ZM823.447 494.616C823.251 494.049 822.654 493.939 821.656 494.285C820.703 494.615 820.269 495.121 820.353 495.803L818.176 496.557C817.937 495.573 818.09 494.714 818.635 493.979C819.181 493.244 820.02 492.68 821.154 492.287C822.288 491.894 823.266 491.822 824.089 492.07C824.919 492.303 825.462 492.788 825.717 493.525C826.012 494.375 825.909 495.033 825.41 495.498L825.563 495.94C826.41 495.927 826.998 496.396 827.328 497.348C827.607 498.153 827.474 498.942 826.929 499.715C826.38 500.477 825.516 501.062 824.337 501.471C822.999 501.935 821.884 502.035 820.993 501.772C820.109 501.494 819.453 500.903 819.025 499.997L821.219 499.237C821.648 499.85 822.423 499.962 823.546 499.573C824.668 499.184 825.121 498.678 824.905 498.054C824.799 497.748 824.609 497.566 824.335 497.509C824.073 497.448 823.692 497.503 823.193 497.676L821.764 498.171L821.134 496.351L822.477 495.886C823.317 495.595 823.64 495.172 823.447 494.616ZM698.043 570.389L695.662 571.214L693.322 564.462L689.751 565.7L692.091 572.452L689.71 573.277L686.68 564.535L695.014 561.647L698.043 570.389ZM702.561 561.013C701.858 561.257 701.411 561.691 701.221 562.316C701.039 562.925 701.077 563.604 701.337 564.352C701.596 565.1 701.988 565.663 702.512 566.04C703.048 566.413 703.667 566.478 704.37 566.235C705.05 565.999 705.482 565.576 705.664 564.967C705.858 564.354 705.822 563.661 705.554 562.89C705.291 562.131 704.894 561.57 704.362 561.208C703.841 560.842 703.241 560.777 702.561 561.013ZM697.526 560.777L699.822 559.981L700.099 560.78L700.541 560.627C700.85 559.758 701.548 559.135 702.637 558.758C703.77 558.365 704.821 558.484 705.789 559.113C706.752 559.732 707.468 560.716 707.936 562.065C708.407 563.426 708.456 564.647 708.081 565.729C707.707 566.812 706.953 567.549 705.819 567.942C704.753 568.312 703.848 568.244 703.102 567.741L702.659 567.894L704.115 572.095L701.734 572.92L697.526 560.777ZM712.392 555.377C713.775 554.898 715.021 554.936 716.128 555.492C717.235 556.049 718.028 557.018 718.508 558.402C718.987 559.785 718.964 561.038 718.438 562.159C717.913 563.281 716.958 564.082 715.575 564.561C714.203 565.037 712.958 564.999 711.839 564.446C710.728 563.879 709.935 562.909 709.459 561.537C708.984 560.165 709.009 558.918 709.535 557.796C710.068 556.659 711.02 555.853 712.392 555.377ZM714.891 562.589C715.606 562.341 716.054 561.913 716.236 561.303C716.426 560.679 716.39 559.986 716.127 559.227C715.867 558.478 715.472 557.923 714.94 557.562C714.415 557.184 713.796 557.12 713.082 557.367C712.379 557.611 711.932 558.045 711.742 558.67C711.549 559.283 711.581 559.964 711.841 560.712C712.104 561.472 712.503 562.038 713.039 562.411C713.571 562.773 714.188 562.832 714.891 562.589ZM728.595 559.802L729.774 563.203L727.461 564.005L726.282 560.603L726.129 560.656C724.689 561.155 723.427 561.142 722.343 560.616C721.255 560.078 720.487 559.163 720.039 557.871C719.595 556.59 719.625 555.411 720.129 554.335C720.643 553.255 721.605 552.458 723.015 551.944L723.253 551.861L721.998 548.239L724.311 547.437L725.566 551.06L725.804 550.977C727.207 550.517 728.444 550.551 729.517 551.081C730.601 551.607 731.365 552.511 731.809 553.792C732.265 555.107 732.212 556.313 731.652 557.409C731.1 558.489 730.081 559.287 728.595 559.802ZM722.37 557.063C722.621 557.789 723.016 558.325 723.556 558.672C724.102 559.003 724.737 559.056 725.459 558.831L725.646 558.766L723.889 553.698L723.719 553.757C723.002 554.031 722.532 554.473 722.312 555.083C722.103 555.689 722.122 556.349 722.37 557.063ZM727.959 557.965L728.095 557.918C728.824 557.64 729.295 557.203 729.508 556.609C729.729 555.999 729.713 555.331 729.462 554.606C729.21 553.88 728.811 553.351 728.265 553.02C727.725 552.674 727.083 552.617 726.339 552.849L726.202 552.897L727.959 557.965ZM741.813 549.83L742.061 550.544L735.802 552.713C736.412 554.254 737.392 554.791 738.741 554.324C739.603 554.025 740.041 553.53 740.056 552.839L742.471 552.002C742.604 552.972 742.413 553.832 741.898 554.582C741.383 555.332 740.547 555.908 739.391 556.308C738.019 556.784 736.785 556.741 735.689 556.181C734.605 555.617 733.819 554.632 733.332 553.226C732.848 551.832 732.862 550.589 733.373 549.497C733.88 548.395 734.808 547.609 736.157 547.142C737.45 546.694 738.604 546.726 739.619 547.237C740.635 547.749 741.366 548.613 741.813 549.83ZM739.08 549.805C738.576 548.863 737.802 548.572 736.759 548.934C735.716 549.295 735.242 550.018 735.339 551.102L739.08 549.805ZM750.041 549.074L752.388 548.261C752.605 549.252 752.445 550.165 751.909 550.999C751.383 551.829 750.576 552.432 749.488 552.809C748.139 553.277 746.924 553.234 745.843 552.682C744.759 552.118 743.975 551.138 743.492 549.744C743.012 548.36 743.024 547.112 743.527 545.998C744.03 544.884 744.956 544.093 746.305 543.625C747.394 543.248 748.386 543.215 749.281 543.527C750.184 543.824 750.849 544.406 751.277 545.274L748.913 546.093C748.485 545.48 747.851 545.318 747.012 545.609C746.309 545.853 745.875 546.27 745.712 546.86C745.548 547.45 745.6 548.131 745.867 548.902C746.134 549.673 746.518 550.251 747.02 550.635C747.529 551.005 748.13 551.07 748.821 550.83C749.762 550.504 750.169 549.919 750.041 549.074ZM754.282 539.432L751.867 540.269L751.13 538.143L753.545 537.306L754.282 539.432ZM754.784 540.935L757.813 549.677L755.432 550.502L752.403 541.76L754.784 540.935ZM762.661 547.997L760.348 548.798L757.319 540.056L759.632 539.255L761.341 544.187L761.749 544.045L763.424 537.94L765.771 537.127L768.801 545.869L766.488 546.67L764.784 541.755L764.376 541.897L762.661 547.997ZM761.593 534.689L763.43 534.052C763.64 534.881 763.558 535.614 763.182 536.252C762.814 536.875 762.159 537.35 761.218 537.676C760.277 538.002 759.469 538.035 758.794 537.773C758.116 537.5 757.603 536.973 757.256 536.192L759.093 535.555C759.233 535.85 759.438 536.058 759.709 536.18C759.98 536.302 760.308 536.296 760.694 536.162C761.453 535.899 761.753 535.408 761.593 534.689ZM779.712 542.088L777.331 542.913L776.122 539.426L772.483 540.688L773.691 544.174L771.31 544.999L768.281 536.257L770.662 535.432L771.793 538.698L775.433 537.436L774.301 534.171L776.682 533.346L779.712 542.088ZM784.535 540.416L782.222 541.218L779.193 532.476L781.506 531.674L783.215 536.607L783.623 536.465L785.299 530.36L787.646 529.547L790.675 538.289L788.362 539.09L786.659 534.175L786.25 534.316L784.535 540.416ZM793.184 537.419L790.155 528.677L793.318 527.581L796.36 530.642L796.802 530.488L797.298 526.202L800.444 525.111L803.474 533.853L801.161 534.655L799.228 529.076L798.785 529.23L798.369 532.536L796.379 533.226L794.006 530.886L793.564 531.039L795.497 536.618L793.184 537.419ZM699.574 587.449C698.871 587.692 698.424 588.126 698.234 588.751C698.052 589.36 698.09 590.039 698.349 590.788C698.609 591.536 699 592.099 699.525 592.476C700.061 592.849 700.68 592.914 701.383 592.67C702.063 592.434 702.495 592.012 702.677 591.402C702.871 590.789 702.834 590.097 702.567 589.326C702.304 588.566 701.906 588.005 701.375 587.644C700.854 587.278 700.254 587.213 699.574 587.449ZM694.539 587.212L696.835 586.417L697.112 587.216L697.554 587.063C697.862 586.194 698.561 585.571 699.649 585.193C700.783 584.801 701.834 584.919 702.801 585.549C703.765 586.167 704.481 587.151 704.948 588.501C705.42 589.861 705.468 591.083 705.094 592.165C704.72 593.247 703.966 593.985 702.832 594.378C701.766 594.747 700.86 594.68 700.114 594.176L699.672 594.33L701.128 598.531L698.747 599.356L694.539 587.212ZM714.942 584.542L715.189 585.257L708.931 587.425C709.541 588.967 710.521 589.503 711.87 589.036C712.732 588.737 713.17 588.242 713.184 587.552L715.599 586.715C715.732 587.685 715.541 588.545 715.027 589.294C714.512 590.044 713.676 590.62 712.52 591.02C711.148 591.496 709.914 591.454 708.818 590.894C707.733 590.33 706.948 589.345 706.46 587.939C705.977 586.544 705.991 585.301 706.502 584.21C707.009 583.107 707.937 582.322 709.286 581.854C710.578 581.406 711.733 581.438 712.748 581.95C713.764 582.461 714.495 583.326 714.942 584.542ZM712.209 584.518C711.705 583.575 710.931 583.284 709.888 583.646C708.845 584.007 708.371 584.73 708.468 585.814L712.209 584.518ZM724.683 586.558L721.706 583.684L719.801 584.344L721.009 587.831L718.628 588.656L715.599 579.914L717.98 579.089L719.112 582.354L721.05 581.682L721.586 577.839L724.018 576.996L723.336 581.957L727.183 585.691L724.683 586.558ZM731.031 576.547C730.328 576.791 729.882 577.225 729.692 577.85C729.509 578.459 729.548 579.138 729.807 579.886C730.066 580.635 730.458 581.197 730.983 581.574C731.518 581.947 732.138 582.012 732.841 581.769C733.521 581.533 733.952 581.11 734.135 580.501C734.329 579.888 734.292 579.196 734.025 578.425C733.762 577.665 733.364 577.104 732.832 576.742C732.312 576.377 731.711 576.312 731.031 576.547ZM725.996 576.311L728.292 575.515L728.569 576.315L729.011 576.161C729.32 575.292 730.018 574.669 731.107 574.292C732.241 573.899 733.291 574.018 734.259 574.648C735.223 575.266 735.938 576.25 736.406 577.599C736.877 578.96 736.926 580.181 736.552 581.264C736.178 582.346 735.423 583.083 734.29 583.476C733.224 583.846 732.318 583.779 731.572 583.275L731.13 583.428L732.585 587.629L730.204 588.454L725.996 576.311ZM744.2 583.604L741.819 584.43L742.181 579.484L735.757 572.928L738.24 572.068L742.032 575.974L742.474 575.82L742.866 570.465L745.264 569.634L744.2 583.604ZM746.749 571.348L746.059 569.358L754.172 566.547L754.861 568.537L752.004 569.527L754.344 576.279L751.963 577.104L749.623 570.352L746.749 571.348ZM765.434 567.045L765.681 567.759L759.422 569.928C760.033 571.469 761.012 572.006 762.362 571.538C763.223 571.24 763.661 570.745 763.676 570.054L766.091 569.217C766.224 570.187 766.033 571.047 765.518 571.797C765.003 572.547 764.168 573.122 763.011 573.523C761.639 573.999 760.405 573.956 759.31 573.396C758.225 572.832 757.439 571.847 756.952 570.441C756.469 569.047 756.483 567.804 756.993 566.712C757.5 565.609 758.428 564.824 759.778 564.357C761.07 563.909 762.224 563.941 763.24 564.452C764.255 564.964 764.987 565.828 765.434 567.045ZM762.701 567.02C762.196 566.077 761.423 565.787 760.379 566.148C759.336 566.51 758.863 567.233 758.959 568.317L762.701 567.02ZM771.126 562.653C770.423 562.897 769.976 563.331 769.786 563.955C769.604 564.565 769.642 565.244 769.901 565.992C770.161 566.74 770.552 567.303 771.077 567.68C771.613 568.053 772.232 568.118 772.935 567.874C773.615 567.639 774.047 567.216 774.229 566.607C774.423 565.993 774.386 565.301 774.119 564.53C773.856 563.771 773.458 563.21 772.927 562.848C772.406 562.482 771.806 562.417 771.126 562.653ZM766.091 562.417L768.387 561.621L768.664 562.42L769.106 562.267C769.414 561.398 770.113 560.775 771.201 560.398C772.335 560.005 773.386 560.123 774.353 560.753C775.317 561.372 776.033 562.356 776.5 563.705C776.972 565.066 777.02 566.287 776.646 567.369C776.272 568.452 775.518 569.189 774.384 569.582C773.318 569.951 772.412 569.884 771.666 569.381L771.224 569.534L772.68 573.735L770.299 574.56L766.091 562.417ZM780.957 557.017C782.34 556.538 783.585 556.576 784.693 557.132C785.8 557.688 786.593 558.658 787.072 560.041C787.552 561.425 787.529 562.677 787.003 563.799C786.477 564.921 785.523 565.722 784.14 566.201C782.768 566.677 781.522 566.638 780.404 566.086C779.293 565.519 778.5 564.549 778.024 563.177C777.549 561.805 777.574 560.558 778.099 559.436C778.632 558.299 779.585 557.493 780.957 557.017ZM783.456 564.228C784.17 563.981 784.619 563.552 784.801 562.943C784.991 562.318 784.954 561.626 784.691 560.867C784.432 560.118 784.036 559.563 783.505 559.201C782.98 558.824 782.361 558.759 781.647 559.007C780.944 559.251 780.497 559.685 780.307 560.309C780.113 560.923 780.146 561.603 780.405 562.352C780.669 563.111 781.068 563.678 781.604 564.051C782.136 564.413 782.753 564.472 783.456 564.228ZM790.612 563.711L787.583 554.969L790.746 553.872L793.788 556.933L794.23 556.78L794.726 552.493L797.872 551.403L800.902 560.145L798.589 560.946L796.656 555.368L796.213 555.521L795.797 558.828L793.807 559.517L791.434 557.177L790.992 557.331L792.925 562.909L790.612 563.711ZM813.224 550.446L813.377 550.888C813.858 550.848 814.294 550.951 814.684 551.197C815.074 551.443 815.361 551.832 815.546 552.365C816.104 553.975 815.351 555.138 813.288 555.853L808.151 557.633L805.122 548.891L810.122 547.158C810.995 546.855 811.739 546.82 812.352 547.052C812.974 547.268 813.404 547.722 813.644 548.414C813.919 549.208 813.779 549.885 813.224 550.446ZM809.886 555.107L812.148 554.323C812.976 554.037 813.278 553.57 813.054 552.924C812.826 552.266 812.298 552.081 811.47 552.368L809.208 553.151L809.886 555.107ZM808.047 549.801L808.631 551.485L810.655 550.783C811.335 550.548 811.579 550.152 811.386 549.596C811.19 549.029 810.751 548.864 810.071 549.1L808.047 549.801ZM713.76 615.743L711.379 616.568L709.039 609.816L705.468 611.054L707.808 617.806L705.426 618.631L702.397 609.889L710.731 607.001L713.76 615.743ZM717.197 604.513C718.58 604.033 719.825 604.072 720.933 604.628C722.04 605.184 722.833 606.154 723.312 607.537C723.792 608.92 723.769 610.173 723.243 611.295C722.717 612.417 721.763 613.218 720.38 613.697C719.008 614.172 717.762 614.134 716.644 613.582C715.533 613.014 714.74 612.045 714.264 610.673C713.789 609.301 713.814 608.054 714.34 606.932C714.873 605.794 715.825 604.988 717.197 604.513ZM719.696 611.724C720.41 611.476 720.859 611.048 721.041 610.439C721.231 609.814 721.195 609.122 720.931 608.362C720.672 607.614 720.276 607.059 719.745 606.697C719.22 606.32 718.601 606.255 717.887 606.503C717.184 606.746 716.737 607.18 716.547 607.805C716.353 608.418 716.386 609.099 716.645 609.847C716.909 610.607 717.308 611.174 717.844 611.547C718.376 611.909 718.993 611.968 719.696 611.724ZM734.655 606.292L736.203 605.756L737.73 610.161L735.485 610.939L734.642 608.507L728.162 610.752L729.005 613.185L726.76 613.963L725.233 609.558L726.526 609.11C726.584 607.629 726.348 606.123 725.818 604.592L724.945 602.075L732.31 599.523L734.655 606.292ZM732.274 607.117L730.618 602.338L727.778 603.323L727.966 603.867C728.528 605.488 728.802 606.975 728.788 608.326L732.274 607.117ZM744.019 605.257L743.76 604.509L743.318 604.662C742.986 605.501 742.282 606.107 741.204 606.48C740.252 606.81 739.402 606.794 738.654 606.431C737.902 606.056 737.384 605.461 737.101 604.645C736.83 603.862 736.889 603.08 737.278 602.297C737.667 601.515 738.457 600.917 739.648 600.505L741.978 599.697L741.901 599.476C741.587 598.569 740.914 598.294 739.882 598.652C738.964 598.97 738.579 599.453 738.727 600.1L736.363 600.919C736.098 600.084 736.228 599.302 736.75 598.575C737.269 597.836 738.067 597.28 739.144 596.907C740.391 596.475 741.453 596.405 742.33 596.699C743.217 596.988 743.856 597.694 744.245 598.816L746.213 604.497L744.019 605.257ZM741.384 604.304C741.962 604.103 742.373 603.77 742.618 603.304C742.863 602.838 742.892 602.333 742.703 601.789L742.514 601.245L740.643 601.893C739.555 602.27 739.146 602.85 739.417 603.632C739.696 604.437 740.352 604.661 741.384 604.304ZM750.616 595.161C749.913 595.404 749.466 595.838 749.276 596.463C749.094 597.072 749.132 597.751 749.391 598.5C749.651 599.248 750.043 599.811 750.567 600.188C751.103 600.561 751.722 600.626 752.425 600.382C753.105 600.146 753.537 599.724 753.719 599.114C753.913 598.501 753.877 597.809 753.609 597.038C753.346 596.278 752.949 595.717 752.417 595.356C751.896 594.99 751.296 594.925 750.616 595.161ZM745.581 594.924L747.877 594.129L748.154 594.928L748.596 594.775C748.904 593.906 749.603 593.283 750.691 592.906C751.825 592.513 752.876 592.631 753.844 593.261C754.807 593.88 755.523 594.864 755.99 596.213C756.462 597.573 756.511 598.795 756.136 599.877C755.762 600.959 755.008 601.697 753.874 602.09C752.808 602.459 751.902 602.392 751.156 601.889L750.714 602.042L752.17 606.243L749.789 607.068L745.581 594.924ZM763.784 602.218L761.403 603.043L761.766 598.098L755.341 591.542L757.824 590.681L761.616 594.587L762.058 594.434L762.45 589.078L764.848 588.247L763.784 602.218ZM777.823 593.543L775.442 594.368L774.234 590.881L770.594 592.143L771.802 595.629L769.421 596.454L766.392 587.712L768.773 586.887L769.905 590.153L773.544 588.891L772.413 585.626L774.794 584.801L777.823 593.543ZM781.258 582.313C782.642 581.834 783.887 581.872 784.994 582.428C786.101 582.984 786.894 583.954 787.374 585.337C787.853 586.721 787.83 587.973 787.304 589.095C786.779 590.217 785.824 591.018 784.441 591.497C783.069 591.973 781.824 591.934 780.705 591.382C779.594 590.814 778.801 589.845 778.326 588.473C777.85 587.101 777.875 585.854 778.401 584.732C778.934 583.595 779.886 582.788 781.258 582.313ZM783.757 589.524C784.472 589.277 784.92 588.848 785.103 588.239C785.292 587.614 785.256 586.922 784.993 586.162C784.733 585.414 784.338 584.859 783.806 584.497C783.282 584.12 782.662 584.055 781.948 584.303C781.245 584.546 780.798 584.981 780.608 585.605C780.415 586.218 780.447 586.899 780.707 587.648C780.97 588.407 781.369 588.974 781.905 589.347C782.437 589.709 783.054 589.768 783.757 589.524ZM796.968 586.908L793.991 584.035L792.086 584.695L793.295 588.181L790.913 589.006L787.884 580.264L790.265 579.439L791.397 582.705L793.336 582.033L793.871 578.19L796.303 577.347L795.622 582.308L799.468 586.042L796.968 586.908Z" fill="black"/>
<path d="M728.695 443.153C751.75 475.655 513.12 344.212 582.744 311.725C620.874 293.934 688.241 315.521 711.147 396.834" stroke="black" stroke-width="0.965517"/>
<path fill-rule="evenodd" clip-rule="evenodd" d="M483.032 71.7814C469.599 69.8771 455.438 71.1373 443.385 75.0879C417.89 83.4446 401.99 99.7597 391.551 123.7C379.695 150.886 373.324 193.374 372.861 223.269C372.48 247.81 372.603 269.773 372.729 292.609C372.795 304.366 372.861 316.355 372.861 329.046C372.861 331.782 370.63 334 367.878 334C365.125 334 362.894 331.782 362.894 329.046C362.894 316.472 362.828 304.537 362.762 292.801C362.635 269.897 362.512 247.755 362.894 223.117C363.369 192.488 369.84 148.573 382.405 119.759C393.814 93.5969 411.703 75.0392 440.264 65.6776C453.817 61.2352 469.531 59.8585 484.44 61.972C499.331 64.083 513.788 69.7347 524.465 79.7274C545.285 99.2113 559.92 124.053 568.207 150.85C568.24 150.959 568.27 151.069 568.296 151.179C580.834 204.548 580.678 240.125 580.417 299.857C580.377 308.974 580.335 318.654 580.335 329.046C580.335 331.782 578.104 334 575.351 334C572.599 334 570.367 331.782 570.367 329.046C570.367 318.59 570.408 308.879 570.447 299.758C570.701 240.079 570.847 205.683 558.629 153.599C550.788 128.333 537.025 105.09 517.633 86.9419C508.835 78.7089 496.483 73.6881 483.032 71.7814Z" fill="#00FA9A"/>
</svg>
