<svg width="126" height="25" viewBox="0 0 126 25" fill="none" xmlns="http://www.w3.org/2000/svg">
<path d="M20.0761 0.649161V5.96808H13.242V23.8059H7.30214V5.96808H0.5V0.649161H20.0761Z" fill="white"/>
<path d="M25.0125 3.56808C27.0138 1.34105 29.8134 0.227539 33.4114 0.227539C37.0094 0.227539 39.8091 1.34105 41.8103 3.56808C43.8116 5.79511 44.8122 8.68159 44.8122 12.2275C44.8122 15.7735 43.8116 18.66 41.8103 20.887C39.8091 23.114 37.0094 24.2275 33.4114 24.2275C29.8134 24.2275 27.0138 23.114 25.0125 20.887C23.0113 18.66 22.0107 15.7735 22.0107 12.2275C22.0107 8.68159 23.0113 5.79511 25.0125 3.56808ZM29.4515 17.0924C30.367 18.3032 31.6869 18.9086 33.4114 18.9086C35.1359 18.9086 36.4559 18.3032 37.3714 17.0924C38.2868 15.86 38.7446 14.2384 38.7446 12.2275C38.7446 10.2167 38.2868 8.60592 37.3714 7.39511C36.4559 6.16267 35.1359 5.54646 33.4114 5.54646C31.6869 5.54646 30.367 6.15186 29.4515 7.36268C28.536 8.57349 28.0783 10.1951 28.0783 12.2275C28.0783 14.2384 28.536 15.86 29.4515 17.0924Z" fill="white"/>
<path d="M63.5473 0.649161H72.4252V23.8059H66.9643V8.14105H66.0701L63.4834 16.4762H57.6712L55.0845 8.14105H54.1903V23.8059H48.7295V0.649161H57.6074L60.1302 9.04916H61.0244L63.5473 0.649161Z" fill="white"/>
<path d="M92.1764 0.649161H101.054V23.8059H95.5934V8.14105H94.6993L92.1125 16.4762H86.3004L83.7137 8.14105H82.8195V23.8059H77.3586V0.649161H86.2365L88.7594 9.04916H89.6535L92.1764 0.649161Z" fill="white"/>
<path d="M114.259 9.08159H115.153L119.305 0.649161H125.5L117.676 15.9248V23.8059H111.736V15.8924L103.944 0.649161H110.075L114.259 9.08159Z" fill="white"/>
</svg>
